<svg xmlns="http://www.w3.org/2000/svg" xmlns:xlink="http://www.w3.org/1999/xlink" version="1.1" id="Layer_1" x="0px" y="0px" viewBox="0 0 100 100" style="enable-background:new 0 0 100 100;" xml:space="preserve">
<title>Barack Obama</title>
<g id="Layer_12">
	<g id="background_round-3">
		<g id="_grupa_">
			<circle style="fill:#FFFFFF;" cx="20.2" cy="57.1" r="0.9"></circle>
			<circle style="fill:#FFFFFF;" cx="79.3" cy="32.2" r="0.7"></circle>
			<circle style="fill:#F1BC19;" cx="76.7" cy="13.2" r="0.9"></circle>
			<circle style="fill:#F1BC19;" cx="20.7" cy="64.8" r="0.9"></circle>
			<circle style="fill:#CEE1F4;" cx="49.5" cy="50.4" r="37.5"></circle>
			<circle style="fill:#F1BC19;" cx="82.1" cy="15.3" r="4"></circle>
			<circle style="fill:#EE3E54;" cx="86.1" cy="24.4" r="1.9"></circle>
			<circle style="fill:#FBCD59;" cx="77.1" cy="76.8" r="1.9"></circle>
			<circle style="fill:#FBCD59;" cx="14" cy="63.9" r="4"></circle>
			<circle style="fill:#EE3E54;" cx="24.2" cy="88" r="1.9"></circle>
			<circle style="fill:#FFFFFF;" cx="75.8" cy="30.7" r="1.8"></circle>
			<circle style="fill:#FFFFFF;" cx="17.7" cy="51.8" r="2.5"></circle>
			<path style="fill:#895F3F;" d="M68.9,71.8c-0.4-2.1-1.3-3.4-3.3-4c-0.1,0-0.2-0.1-0.3-0.1l-0.6-0.2c-1.3-0.5-8.7-3.3-8.7-3.3     c-0.6-0.2-1-0.6-1.2-1.1c-0.2-1-0.3-1.9-0.2-2.9c-1.6,0.6-3.3,1-5,1.4c-1.9,0.2-6-2.3-6-2.3s-0.1,3-0.2,3.7     c-0.2,0.6-0.7,1-1.3,1.1l-7.1,2.6c-0.8,0.2-1.5,0.5-2.2,0.9c-1.5,1-2.6,2.4-3.2,4.2c0,0-0.4,3.3-0.4,3.4c0,0.5-0.1,1-0.1,1.5     c7.8,5.3,14,6.7,24.7,6.3c4.9-0.2,12.1-2.6,15.9-4.5C69.2,74.3,68.9,71.8,68.9,71.8z"></path>
			<path style="fill:#195484;" d="M68.9,72c-0.4-2.2-1.3-3.4-3.3-4c-0.1,0-0.2-0.1-0.3-0.1l-0.6-0.2c-0.7-0.3-7.3-2.6-9.5-3.4     c-2.9,2.1-4.2,2.8-6.2,2.8s-4-0.9-6.2-3l-3.2,1.2l0,0l-0.3,0.1l-4.5,1.6c-0.8,0.2-1.5,0.5-2.2,0.9c-1.5,1-2.6,2.4-3.2,4.2     c0,0-0.4,3.3-0.4,3.4c0,0.5-0.1,5.4-0.1,6c7.8,5.3,14,6.7,24.7,6.3c4.9-0.2,12.1-2.6,15.9-4.5C69.2,78.9,68.9,72,68.9,72z"></path>
			<path style="fill:#FDFCEF;" d="M55.9,74.6c-0.7-0.9-1.3-2-2-2.9c-0.2-0.2-0.2-0.5,0-0.7c0.4-0.5,1-0.8,1.6-1     c0.6-0.3,1.2-0.6,1.9-0.8c-0.4-1.7-1.2-3.2-2.2-4.6c-0.1-0.1-0.1-0.4,0-0.5C52.2,66.2,50.9,67,49,67c-2.2,0-4.4-1.1-5.8-2.8     c-0.3,1.5-1.6,3.6-0.6,5.1c0.4,0.6,1.2,0.8,1.5,1.5c0.4,1-0.2,2.5-0.2,3.6c0,2,0.5,3.9,1.3,5.7c0,0.1,0,0.2,0,0.2     c0.7,1.3,1.3,2.6,1.8,3.9c0.4,1.1,0.7,2.3,1,3.5c0.5,0,0.9,0,1.5,0c0.5-2.3,1.8-4.4,2.7-6.6C53.1,78.8,54.3,76.6,55.9,74.6z"></path>
			<path style="fill:#EE3E54;" d="M50.8,73.5l-0.5,12.1l-0.8,2l-0.6,0.1h-0.6l-1.2-2.4l0.1-11.8c0.4-1,1.5-1.5,2.5-1.1     C50.2,72.6,50.6,73,50.8,73.5z"></path>
			<path style="fill:#D82A47;" d="M47.3,71.7l-1.7-4.1h6.6l-1.7,4.1c-0.4,0.9-1.4,1.3-2.4,0.9C47.9,72.5,47.5,72.1,47.3,71.7z"></path>
			<path style="fill:#E1E0D8;" d="M43,63.8l-1.4,1.1l3.7,7.9l4-5.7C49.3,67.1,43.3,65.4,43,63.8z"></path>
			<path style="fill:#E1E0D8;" d="M54.8,63.8l1.6,1l-3.9,8.1l-4-5.7C48.5,67.2,54.5,65.4,54.8,63.8z"></path>
			<path style="fill:#114568;" d="M35.7,85.6c-0.2,0-0.3-0.1-0.3-0.3v-4c0-0.2,0.1-0.3,0.3-0.3s0.3,0.1,0.3,0.3v4     C36,85.5,35.8,85.6,35.7,85.6z"></path>
			<path style="fill:#114568;" d="M62,86.3c-0.2,0-0.3-0.1-0.3-0.3v-4.6c0-0.2,0.1-0.3,0.3-0.3s0.3,0.1,0.3,0.3V86     C62.3,86.2,62.1,86.3,62,86.3z"></path>
			<path style="fill:#1C658E;" d="M54.7,63.3c0,0,2.4,1,4.1,6.5l-4.1,1.5l2.6,3l-7.8,13.6C51.7,79.8,53.4,71.6,54.7,63.3z"></path>
			<path style="fill:#1C658E;" d="M43.2,63.3c0,0-2.4,1-4.1,6.5l4.1,1.5l-2.6,3l7.7,13.6C46.1,79.8,44.4,71.6,43.2,63.3z"></path>
			<g>
				<path style="fill:#A3754F;" d="M61.2,45.3h-0.4c-1,0-1.2,0.3-1.2-0.3c0.1-1.1-0.1-5.4-0.1-5.6c0-4.5-4.7-8.1-10.5-8.3l0,0h-0.2      l0,0C43,31.3,38.4,35,38.4,39.4c0,0.2-0.2,4.5-0.1,5.6c0,0.6-0.2,0.2-1.2,0.3h-0.4c-1,0-1.8,0.6-2.1,1.6      c0.1,0.1,0.6,3.7,1.4,5.2c0.4,0.8,1.1,0.9,1.8,1.4c0.3,0.2,0.5,0.6,0.6,1c0.5,1.6,1.4,3,2.7,4.1c0.6,0.6,4.5,4.7,7.9,4.5      s7.3-4,7.9-4.5c1.3-1.1,2.2-2.5,2.7-4.1c0.1-0.4,0.3-0.8,0.6-1c0.7-0.5,1.4-0.6,1.8-1.4c0.8-1.4,1.3-5.1,1.4-5.2      C63,45.9,62.1,45.3,61.2,45.3z"></path>
				<path style="fill:#472B29;" d="M48.7,63.4c-2.1,0-4.7-1.5-7.7-4.5l-0.2-0.2c-1.3-1.1-2.3-2.6-2.8-4.2c-0.1-0.4-0.2-0.6-0.5-0.8      c-0.2-0.2-0.4-0.3-0.6-0.4c-0.5-0.3-0.9-0.5-1.3-1.2c-0.6-1-1-3-1.2-4.3c-0.1-0.3-0.1-0.7-0.2-0.8L34.2,47l0.1-0.3      c0.3-1.1,1.3-1.8,2.4-1.8h0.4c0.4,0,0.7,0,0.8,0.1c-0.1-0.9,0-3.8,0.1-5c0-0.3,0-0.5,0-0.5c0-4.6,4.7-8.4,10.8-8.6l0.3,0      c6.1,0.2,10.8,4,10.8,8.6c0,0,0,0.2,0,0.5c0,1.2,0.1,4.1,0.1,5c0,0,0,0,0,0c0.2,0,0.5-0.1,0.8-0.1h0.4c1.1,0,2.1,0.7,2.4,1.8      l0.1,0.3l-0.1,0.1c0,0.2-0.1,0.5-0.2,0.8c-0.2,1.2-0.6,3.2-1.2,4.3c-0.3,0.6-0.8,0.9-1.3,1.2c-0.2,0.1-0.4,0.2-0.6,0.4      c-0.2,0.2-0.4,0.5-0.4,0.8c-0.5,1.7-1.5,3.2-2.8,4.3l-0.1,0.1c-3.1,2.8-5.8,4.3-7.9,4.5C48.9,63.4,48.8,63.4,48.7,63.4z       M35,46.8c0.1,0.2,0.1,0.4,0.2,1c0.2,1.2,0.6,3.1,1.1,4.1c0.2,0.5,0.6,0.6,1,0.9c0.2,0.1,0.5,0.3,0.7,0.4      c0.4,0.3,0.6,0.7,0.7,1.2c0.5,1.5,1.3,2.8,2.6,3.9l0.2,0.2c3.7,3.7,6.1,4.4,7.4,4.3c1.4-0.1,3.8-0.9,7.5-4.3l0.2-0.1      c1.2-1,2.1-2.4,2.6-3.9c0.1-0.4,0.3-0.9,0.7-1.2c0.2-0.2,0.5-0.3,0.7-0.4c0.4-0.2,0.8-0.4,1-0.9c0.5-0.9,0.9-2.9,1.1-4.1      c0.1-0.5,0.2-0.8,0.2-0.9c-0.3-0.7-1-1.2-1.7-1.2h-0.4c-0.3,0-0.5,0-0.7,0.1c-0.2,0-0.5,0.1-0.7-0.1c-0.2-0.2-0.2-0.5-0.2-0.6      c0.1-0.8,0-3.9-0.1-5c0-0.3,0-0.5,0-0.5c0-4.3-4.4-7.7-10.1-7.9l-0.2,0c-5.7,0.2-10.1,3.7-10.1,7.9c0,0,0,0.2,0,0.5      c0,1.1-0.1,4.2-0.1,5c0,0.2,0,0.5-0.2,0.6c-0.2,0.2-0.4,0.1-0.6,0.1c-0.2,0-0.4-0.1-0.7,0l-0.4,0C36,45.6,35.3,46.1,35,46.8z"></path>
			</g>
			<path style="fill:#512C2B;" d="M49,52.3c0.7,0,1.3-0.3,1.8-0.8c0,0,0-0.1,0-0.2c0,0,0,0,0,0l0,0c0,0-0.1,0-0.2,0c0,0,0,0,0,0     c-0.9,0.8-2.3,0.8-3.2,0c0,0-0.1,0-0.1,0c0,0-0.1,0-0.1,0c0,0,0,0.1,0,0.2c0,0,0,0,0,0C47.7,52,48.3,52.3,49,52.3z"></path>
			<path style="fill:#512C2B;" d="M46.8,43.1l0.4-0.8c-1.9-0.4-3.8-0.4-5.7,0.2l0.5,0.8C43.7,42.8,45.3,42.7,46.8,43.1z"></path>
			<path style="fill:#512C2B;" d="M56,43.1l0.4-0.8c-1.9-0.4-3.8-0.4-5.7,0.2l0.5,0.8C52.8,42.8,54.4,42.7,56,43.1z"></path>
			<path style="fill:#512C2B;" d="M44.2,44.3c-0.5,0-0.9,0.3-1,0.7c0.1,0,0.1,0,0.2,0c0.4,0,0.7,0.3,0.7,0.7c0,0.4-0.3,0.7-0.7,0.7     c-0.1,0-0.2,0-0.3-0.1c0.1,0.6,0.6,1.1,1.2,1.2c0.9-0.2,1.4-1.1,1.2-2C45.2,44.9,44.8,44.5,44.2,44.3L44.2,44.3z"></path>
			<path style="fill:#512C2B;" d="M53.8,44.3c-0.4,0-0.7,0.2-0.9,0.5c0.1,0,0.2,0,0.2,0c0.4,0,0.7,0.3,0.7,0.7     c0,0.4-0.3,0.7-0.7,0.7c-0.2,0-0.4-0.1-0.5-0.3c0.2,0.7,0.9,1.1,1.6,0.9c0.7-0.2,1.1-0.9,0.9-1.6C54.9,44.7,54.4,44.3,53.8,44.3     L53.8,44.3z"></path>
			<path style="fill:#512C2B;" d="M54.3,54.2c0,0,0-0.1,0-0.2c0,0,0,0,0,0l0,0c0,0-0.1,0-0.2,0c0,0,0,0,0,0c-1.5,1-3.3,1.5-5.1,1.4     c-1.8,0.1-3.6-0.4-5.1-1.4h-0.1c0,0-0.1,0-0.1,0c0,0,0,0.1,0,0.2c0,0,0,0,0,0C46.9,56.4,51.1,56.4,54.3,54.2L54.3,54.2z"></path>
			<path style="fill:#512C2B;" d="M39.1,41.7c0.5-2.2,1.2-4.3,2.3-6.2c-0.3-0.5-1-0.7-1.5-0.5c-1.4,2.6-2.2,5.5-2.1,8.5     c0.1,1.4,0.3,2.7,0.7,4C38.8,45.5,38.7,43.6,39.1,41.7z"></path>
			<path style="fill:#512C2B;" d="M58.9,41.7c-0.5-2.2-1.2-4.3-2.3-6.2c0.3-0.5,1-0.7,1.5-0.5c1.4,2.6,2.2,5.5,2.1,8.5     c-0.1,1.4-0.3,2.7-0.7,4C59.2,45.5,59.3,43.6,58.9,41.7z"></path>
			<path style="fill:#512C2B;" d="M50.4,59.5c0.1,0,0.1-0.1,0.1-0.2s0-0.2-0.1-0.2h-2.6c-0.1,0-0.1,0.1-0.1,0.2c0,0.1,0,0.1,0.1,0.2     H50.4z"></path>
			<path style="fill:#472B29;" d="M50.1,88.3c-8.9,0-14.6-1.8-21.5-6.4c-0.1-0.1-0.2-0.3-0.2-0.5c0-0.1,0-0.4,0-0.9     c0-2.2,0.1-6.8,0.6-8.6c0.4-1.9,1.6-3.6,3.4-4.5c0.7-0.4,1.5-0.7,2.3-0.9l7.1-2.5c0.5-0.1,0.8-0.4,1-0.8c0.1-0.6,0.1-1.3,0.1-2     c-0.7-0.5-1.4-1-2.1-1.6c-1.3-1.2-2.3-2.7-2.8-4.4c-0.1-0.3-0.2-0.6-0.4-0.8c-0.2-0.1-0.4-0.3-0.6-0.4c-0.5-0.3-1-0.6-1.3-1.2     c-0.8-1.7-1.3-3.5-1.5-5.4c0-0.1,0-0.1,0-0.2c0.3-1.1,1.4-1.9,2.6-2h0.4c0.3,0,0.5,0,0.7,0c0-1.1,0-3.7,0.1-4.9     c0-0.3,0-0.5,0-0.5c0-4.8,4.8-8.7,10.9-8.9l0.3,0c6.2,0.2,11,4.1,11,8.9c0,0,0,0.2,0,0.5c0,1.2,0.1,3.8,0.1,4.9     c0.2,0,0.4-0.1,0.7-0.1h0.4c1.2,0,2.2,0.8,2.6,2c0,0.1,0,0.1,0,0.2c-0.2,1.9-0.6,3.7-1.4,5.4c-0.4,0.7-0.9,1-1.4,1.2     c-0.2,0.1-0.4,0.2-0.6,0.4c-0.2,0.2-0.3,0.4-0.4,0.7c-0.5,1.8-1.5,3.3-2.8,4.4c-0.7,0.6-1.5,1.2-2.2,1.8c0,0.6,0.1,1.3,0.3,1.9     c0.1,0.3,0.5,0.6,0.9,0.8c0.3,0.1,7.5,2.8,8.7,3.3l0.6,0.2c0.1,0,0.2,0.1,0.3,0.1c2.1,0.6,3.2,1.9,3.7,4.4c0,0,0,0,0,0.1     c0,0,0.4,6.9,0.6,11.2c0,0.2-0.1,0.4-0.3,0.5c-4,2-11.3,4.4-16.1,4.6C52.3,88.2,51.2,88.3,50.1,88.3z M29.3,81.2     c7.4,5,13.6,6.5,24.2,6c4.5-0.2,11.4-2.4,15.4-4.3c-0.2-4.1-0.5-10.3-0.5-10.8c-0.4-2.1-1.2-3.1-3-3.6c-0.1,0-0.3-0.1-0.4-0.1     l-0.6-0.2c-1.2-0.5-8.6-3.2-8.7-3.3c-0.7-0.2-1.2-0.7-1.5-1.4c-0.3-0.8-0.4-1.7-0.3-2.5c0-0.2,0.1-0.3,0.2-0.4     c0.8-0.6,1.6-1.2,2.3-1.8c1.2-1,2.1-2.4,2.5-3.9c0.1-0.4,0.3-0.9,0.7-1.2c0.3-0.2,0.5-0.3,0.7-0.5c0.4-0.2,0.7-0.4,1-0.8     c0.7-1.5,1.2-3.2,1.3-4.9c-0.2-0.7-0.9-1.1-1.6-1.2h-0.3c-0.3,0-0.5,0-0.7,0.1c-0.3,0-0.5,0.1-0.8-0.1c-0.2-0.2-0.2-0.6-0.2-0.7     c0.1-0.8,0-3.9-0.1-5.1c0-0.3,0-0.5,0-0.5c0-4.2-4.4-7.7-10-7.9l-0.2,0c-5.6,0.2-10,3.7-10,7.9c0,0,0,0.2,0,0.5     c0,1.2-0.1,4.2-0.1,5.1c0,0.2,0,0.5-0.2,0.7c-0.2,0.2-0.5,0.2-0.7,0.1c-0.2,0-0.4-0.1-0.7-0.1l-0.4,0c-0.7,0-1.3,0.5-1.6,1.2     c0.2,1.7,0.6,3.4,1.3,5c0.2,0.4,0.5,0.6,0.9,0.8c0.2,0.1,0.5,0.3,0.7,0.5c0.4,0.3,0.7,0.8,0.8,1.3c0.4,1.4,1.3,2.8,2.5,3.8     c0.7,0.6,1.5,1.2,2.2,1.7c0.1,0.1,0.2,0.3,0.2,0.4c0,0.8-0.1,1.6-0.2,2.4c-0.3,0.8-0.9,1.4-1.7,1.6L35,67.4     c-0.8,0.2-1.5,0.5-2.1,0.9c-1.5,0.8-2.6,2.2-2.9,3.9c-0.5,1.7-0.5,6.4-0.6,8.4C29.4,80.8,29.4,81,29.3,81.2z"></path>
			<path style="fill:#895D3D;" d="M61.2,50.1l-0.6-0.1l0.2-1.8l-1,0.4l-0.2-0.6l1.5-0.6c0.1,0,0.2,0,0.3,0c0.1,0.1,0.1,0.2,0.1,0.3     L61.2,50.1z"></path>
			<path style="fill:#895D3D;" d="M37,49.8l-0.3-2.3c0-0.1,0-0.2,0.1-0.3c0.1-0.1,0.2-0.1,0.3,0l1.5,0.6l-0.2,0.6l-1-0.4l0.2,1.8     L37,49.8z"></path>
			<path style="fill:#472B29;" d="M38.4,54.3C38.3,54.3,38.3,54.3,38.4,54.3c-0.1,0-0.2-0.1-0.2-0.2l0.2-8.6c0-0.1,0.1-0.2,0.2-0.2     c0.1,0,0.2,0.1,0.2,0.2l-0.2,8.6C38.5,54.2,38.5,54.3,38.4,54.3z"></path>
			<path style="fill:#472B29;" d="M59.7,54.3c-0.1,0-0.2-0.1-0.2-0.2l-0.2-8.6c0-0.1,0.1-0.2,0.2-0.2c0,0,0,0,0,0     c0.1,0,0.2,0.1,0.2,0.2l0.2,8.6C59.9,54.2,59.8,54.2,59.7,54.3C59.7,54.3,59.7,54.3,59.7,54.3z"></path>
			<path style="fill:#512C2B;" d="M60.4,42.8c0.5-4.9-0.9-7.8-2-9.1c-2.7-2.2-6.1-3.4-9.5-3.4c-2.9,0-5.8,0.8-8.2,2.4     c-1.9,2-4.2,5.7-3.1,10.1c0.2,2.2,0.5,4.4,1,6.5c0.2-2,0.2-6.4,0.6-8.3c0.3-1.4,0.7-2.8,1.3-4.1c2.7-3.1,14.1-2.9,17,0     c0.5,1.3,1,2.7,1.3,4.1c0.4,1.9,0.4,6.3,0.8,8.2C60,47.2,60.3,45,60.4,42.8z"></path>
		</g>
	</g>
</g>
</svg>