<svg xmlns="http://www.w3.org/2000/svg" xmlns:xlink="http://www.w3.org/1999/xlink" version="1.1" id="Warstwa_48" x="0px" y="0px" viewBox="0 0 100 100" style="enable-background:new 0 0 100 100;" xml:space="preserve">
<title>women bubble settings</title>
<g id="_grupa_">
	<circle style="fill:#FFFFFF;" cx="19.8" cy="55.8" r="0.9"></circle>
	<circle style="fill:#FFFFFF;" cx="78.9" cy="31" r="0.7"></circle>
	<circle style="fill:#F1BC19;" cx="76.3" cy="11.9" r="0.9"></circle>
	<circle style="fill:#F1BC19;" cx="20.3" cy="63.5" r="0.9"></circle>
	<circle style="fill:#F9DBD2;" cx="49.1" cy="49.2" r="37.5"></circle>
	<circle style="fill:#F1BC19;" cx="81.7" cy="14.1" r="4"></circle>
	<circle style="fill:#EE3E54;" cx="85.7" cy="23.2" r="1.9"></circle>
	<circle style="fill:#FBCD59;" cx="76.7" cy="75.6" r="1.9"></circle>
	<circle style="fill:#FBCD59;" cx="13.5" cy="62.6" r="4"></circle>
	<circle style="fill:#EE3E54;" cx="23.8" cy="86.8" r="1.9"></circle>
	<circle style="fill:#FFFFFF;" cx="75.4" cy="29.5" r="1.8"></circle>
	<circle style="fill:#FFFFFF;" cx="17.3" cy="50.5" r="2.5"></circle>
	<path style="fill:#472B29;" d="M35.9,40.4c0.5,1-0.3,2.3-1.3,2.9s-2.2,0.8-3.2,1.4c-2.1,1.3-2.7,4-1.5,6c0.7,1.2,1.9,1.9,3.2,2.1   c-1.8,0.4-3,2.1-2.7,3.9c0.4,1.8,1.6,3.2,3.3,3.8c1.7,0.5,3.5,0.6,5.2,0.2c2.7,2.5,6.7,3,9.9,1.2"></path>
	<path style="fill:#472B29;" d="M61.5,40.4c-0.5,1,0.3,2.3,1.3,2.9s2.2,0.8,3.2,1.4c2.1,1.3,2.7,4,1.5,6c-0.7,1.2-1.9,1.9-3.2,2.1   c1.8,0.4,3,2.1,2.7,3.9c-0.4,1.8-1.6,3.2-3.3,3.8c-1.7,0.5-3.5,0.6-5.2,0.2c-2.7,2.5-6.7,3-9.9,1.2"></path>
	<path style="fill:#D8AD8F;" d="M59.7,40.4c0.1-1.5,0.6-3.3,0.7-4L59.2,33c-1.3-1.6-2.2-3.1-4-4.3c-2-1.3-4.6-0.5-6.9-1.1   c-5.7-1.4-10.9,4.3-12.7,9.7c0,0,0,0.1-0.1,0.1c0.2,1,0.3,2,0.4,2.9c-1.5,0-2.3,0.8-1.8,2.4c0,0,0.6,2.6,1,3.9   c0.1,0.7,0.8,1.2,1.5,1.2c0,0.8,0,1.7,0,2.5c0,1,0.3,2,0.9,2.8c1.5,2.2,9.2,7.2,11.1,7c3,0,9-5.1,10.6-7.7c0.3-0.5,0.4-1.1,0.5-1.7   c0-1,0-2,0-3c0.6-0.1,1.1-0.6,1.3-1.2c0.4-1.3,1-3.9,1-3.9C62.4,41.2,61.2,40.3,59.7,40.4z"></path>
	<path style="fill:#B2876B;" d="M64.3,65.9l-0.3-0.1l-0.6-0.2c-1.2-0.5-9.3-3.3-9.3-3.3c-0.5-0.2-1-0.6-1.2-1.1   c-0.2-1-0.3-1.9-0.2-2.9c-1.4,0.6-2.8,1.1-4.2,1.4c-1.9,0.2-5.2-2.3-5.2-2.3s-0.1,3-0.2,3.7c-0.2,0.6-0.7,1-1.3,1.1L34,64.9   c-0.8,0.2-1.5,0.5-2.2,0.9c-1.6,1.1-2.8,2.8-3.3,4.7h0c0,0.1,0,0.3-0.1,0.6c-0.1,0.4-0.1,0.9-0.1,1.3c0,0.5,0,6.1-0.1,6.7   c6.8,7,16.3,6.5,26.8,6.5c4.6,0,9.1-2.6,13.1-4.1C67.8,72.1,68.5,67.2,64.3,65.9z"></path>
	<path style="fill:#472B29;" d="M36.8,48.6c-0.1,0-0.2-0.1-0.2-0.2l-0.8-8.1c0-0.1,0.1-0.2,0.2-0.2c0.1,0,0.2,0.1,0.2,0.2l0.8,8.1   C37.1,48.5,37,48.6,36.8,48.6C36.9,48.6,36.9,48.6,36.8,48.6z"></path>
	<path style="fill:#472B29;" d="M59.3,48.2C59.3,48.2,59.3,48.1,59.3,48.2c-0.1,0-0.2-0.1-0.2-0.2l0.5-8.1c0-0.1,0.1-0.2,0.2-0.2   c0.1,0,0.2,0.1,0.2,0.2L59.5,48C59.5,48.1,59.5,48.2,59.3,48.2z"></path>
	<path style="fill:#EAB436;" d="M39.3,63.1c-0.2,9,17.4,9.6,16.2-0.7l4.9,1.7l1.5,19.9c0,0-17.5,4-28.7-1.9L34,64.9L39.3,63.1z"></path>
	<path style="fill:#472B29;" d="M48.1,86.1c-7.3,0-14.9-1.5-20.2-6c-0.1-0.1-0.2-0.3-0.2-0.4c0-0.1,0-0.2,0-0.4   c-0.2-7.6,1.1-12.2,4-13.7c0.7-0.4,1.5-0.7,2.3-0.9l7.8-2.6c0.5-0.1,0.8-0.4,0.9-0.8c0.1-0.4,0.2-2,0.3-2.8c-2.3-1.5-5-3.4-5.8-4.7   c-0.7-0.9-1-2-0.9-3.1l0-2c-0.7-0.2-1.3-0.8-1.5-1.5c-0.4-1.2-1-3.8-1-3.9c-0.4-1.1-0.1-1.8,0.2-2.2c0.2-0.3,0.7-0.7,1.6-0.8   c0-0.2,0-0.3,0-0.5c-0.3-0.6-0.4-1.1-0.5-1.8c0-6.5,5.8-11.8,12.9-11.8c7.1,0,12.9,5.3,12.9,11.8c0,0.7-0.2,1.3-0.5,1.9   c0,0.1,0,0.2,0,0.3c0.8,0.1,1.5,0.4,1.9,1c0.3,0.4,0.6,1.1,0.2,2.1c-0.1,0.6-0.7,2.9-1,3.9c-0.1,0.6-0.6,1.2-1.2,1.4V51   c0,0.7-0.2,1.3-0.5,1.9c-1.8,2.4-3.9,4.4-6.4,6.1c0,0.8,0,1.5,0.2,2.3c0.1,0.3,0.5,0.6,0.9,0.7c0.4,0.1,8.1,2.8,9.3,3.3l0.8,0.3   c0,0,0,0,0,0c3.8,1.2,3.9,4.8,4.1,11.2c0,1.4,0.1,2.9,0.2,4.6c0,0.2-0.1,0.4-0.2,0.4C65.5,83.8,57.1,86.1,48.1,86.1z M28.7,79.4   c11.3,9.3,33.4,5,39,1.8c-0.1-1.6-0.1-3-0.1-4.3c-0.2-6.2-0.2-9.3-3.4-10.3l-0.3-0.1l-0.6-0.3C62,65.7,54.1,63,54,63   c-0.7-0.2-1.2-0.7-1.5-1.4c-0.3-1-0.4-2-0.3-2.9c0-0.2,0.1-0.3,0.2-0.4c2.5-1.6,4.6-3.5,6.3-5.9c0.2-0.4,0.3-0.9,0.3-1.4v-3   c0-0.2,0.2-0.5,0.4-0.5c0.4-0.1,0.8-0.4,0.9-0.8c0.4-1.3,1-3.7,1-3.9c0.2-0.6,0.2-1-0.1-1.3C61,41.2,60.4,41,59.7,41   c-0.1,0-0.3,0-0.4-0.1c-0.1-0.1-0.1-0.2-0.1-0.4c0-0.7,0-1.1,0.2-1.3c0.2-0.4,0.3-0.9,0.3-1.4c0-5.9-5.3-10.8-11.9-10.8   c-6.6,0-11.9,4.8-11.9,10.8c0,0.5,0.2,1,0.4,1.4c0,0,0,0.1,0,0.2c0,0.4,0.1,0.7,0.1,1.1c0,0.1,0,0.3-0.1,0.4S36.1,41,35.9,41   c-0.4,0-1,0.1-1.3,0.4c-0.3,0.4-0.2,0.9,0,1.3c0,0.1,0.6,2.7,1,3.9c0.1,0.5,0.5,0.9,1,0.8c0.1,0,0.3,0,0.4,0.1   c0.1,0.1,0.2,0.2,0.2,0.4v2.5c0,0.9,0.2,1.8,0.8,2.5c0.7,1,3.1,2.9,5.8,4.6c0.1,0.1,0.2,0.3,0.2,0.4c0,0.8-0.2,2.8-0.3,3.4   c-0.3,0.8-0.9,1.4-1.6,1.5l-7.7,2.6c-0.7,0.2-1.4,0.5-2.1,0.9c-1.7,0.9-3.7,3.8-3.4,12.8C28.7,79.2,28.7,79.3,28.7,79.4z"></path>
	<path style="fill:#472B29;" d="M48.6,59.9c-1.9,0-5-1.7-5.2-1.7c-0.1-0.1-0.2-0.2-0.1-0.3c0.1-0.1,0.2-0.2,0.3-0.1   c0,0,3.4,1.8,5.1,1.7c1.5-0.3,3-0.8,4.3-1.6c0.1-0.1,0.3,0,0.3,0.1c0.1,0.1,0,0.3-0.1,0.3c-1.4,0.8-2.9,1.4-4.5,1.7   C48.7,59.9,48.7,59.9,48.6,59.9z"></path>
	<circle style="fill:#FBCD59;" cx="43.4" cy="30.5" r="1.5"></circle>
	<path style="fill:#033B55;" d="M35.8,42.1c0-0.2,0-0.4,0-0.7l-1.6,0.3l0.6,3l0.6-0.1L35,42.3L35.8,42.1z"></path>
	<path style="opacity:0.41;fill:#472B29;enable-background:new    ;" d="M48.2,48.7c0.8,0,1.6-0.4,2.2-1c0.1-0.1,0.1-0.1,0-0.2   c0,0,0,0,0,0l0,0c-0.1-0.1-0.1-0.1-0.2,0c0,0,0,0,0,0c-1.1,1-2.8,1-3.9,0c0,0-0.1,0-0.1,0c0,0-0.1,0-0.1,0c-0.1,0.1-0.1,0.2,0,0.2   C46.6,48.3,47.4,48.7,48.2,48.7z"></path>
	<path style="fill:#472B29;" d="M45.6,37.7l0.5-1c-2.3-0.5-4.7-0.5-7,0.2l0.7,1C41.7,37.3,43.7,37.2,45.6,37.7z"></path>
	<path style="fill:#472B29;" d="M56.9,37.7l0.5-1c-2.3-0.5-4.7-0.5-7,0.2l0.7,1C53,37.3,55,37.2,56.9,37.7z"></path>
	<path style="fill:#472B29;" d="M42.1,39.1c-0.6,0-1.1,0.4-1.3,0.9c0.1,0,0.1,0,0.2,0c0.5,0.1,0.9,0.5,0.8,1c0,0.4-0.4,0.8-0.8,0.8   c-0.1,0-0.3,0-0.4-0.1c0.1,0.8,0.7,1.3,1.5,1.4c1.1-0.2,1.8-1.2,1.6-2.3C43.6,40,43,39.3,42.1,39.1L42.1,39.1z"></path>
	<path style="fill:#472B29;" d="M53.9,39.1c-0.5,0-0.9,0.3-1.2,0.7c0.1,0,0.2-0.1,0.3-0.1c0.5,0.1,0.9,0.5,0.8,1   c0,0.4-0.4,0.8-0.8,0.8c-0.3,0-0.5-0.2-0.7-0.4c-0.2,0.8,0.3,1.7,1.2,1.9c0.8,0.2,1.7-0.3,1.9-1.2c0.1-0.2,0.1-0.5,0-0.7   C55.6,40.2,54.9,39.3,53.9,39.1z"></path>
	<path style="fill:#472B29;" d="M54.8,51.2c0.1-0.1,0.1-0.2,0-0.2l0,0c-0.1-0.1-0.2-0.1-0.2,0c-1.9,1.2-4.1,1.9-6.3,1.7   c-2.2,0.1-4.4-0.5-6.3-1.8c0,0-0.1,0-0.1,0c0,0-0.1,0-0.1,0c-0.1,0.1-0.1,0.2,0,0.2c1.9,1.4,4.2,2.1,6.5,2   C50.6,53.3,52.9,52.6,54.8,51.2z"></path>
	<circle style="fill:#CD9480;" cx="40.7" cy="47.7" r="2.3"></circle>
	<circle style="fill:#CD9480;" cx="55.6" cy="47.7" r="2.3"></circle>
	<path style="fill:#472B29;" d="M49.7,25.5c1.6,0.5,5.4,2.8,5,5.9c-0.4,3.4,5.7,3.8,4.2,9.8c-0.2,1,1.1,0.7,1.6-0.2   c3-5.5,2.9-11.2-0.1-14.8c-2.8-3.4-9.4-3.6-10.5-2.4c-0.1,0.2-0.2,0.4-0.2,0.6C49.6,24.8,49.5,25.5,49.7,25.5z"></path>
	<path style="fill:#472B29;" d="M56.5,25c0-1.9-2.2-3.4-4.1-3.6c-5.8-0.6-13.9,1.6-17.4,6.1s-4.2,13.9-2.2,16.9   c2.2,3.3,3.5,0.4,3.9-1c2.1-7.3,6-6.8,9.5-9c4.7-2.9,2.8-7.3,9.2-4.6C57.1,30.6,56.5,26.7,56.5,25z"></path>
	<path style="fill:#EE3E54;" d="M46.9,40.2c-2.3-2.7-10.7-0.8-10.7-0.8c0.2,0.6,0.3,1.2,0.4,1.8c0.6,0.1,0.7,1.5,0.7,2   c0.3,2.5,2,4.3,5.5,4.3c2.4,0,4.5-1.9,4.5-4.3c0,0,0,0,0,0C47.4,42.1,47.3,41.1,46.9,40.2z M46.5,43.2c0,2-1.7,3.7-3.7,3.7   c0,0-0.1,0-0.1,0h-0.7c-3.5,0-4.1-3.1-4.2-5c-0.1-1.1,0.8-2.1,1.9-2.2c0.6-0.1,1.4-0.1,2.2-0.1c2.6,0,3.8,0.6,4.1,1.1   C46.4,41.6,46.6,42.4,46.5,43.2z"></path>
	<path style="fill:#EE3E54;" d="M49.4,43.1c0,2.4,2,4.4,4.5,4.4c0,0,0,0,0,0c3.5,0.1,5.2-1.8,5.5-4.3c0.1-0.5,0.1-1.9,0.7-2   c0.1-0.6,0.3-1.2,0.4-1.8c0,0-8.5-2-10.7,0.8C49.4,41.1,49.3,42.1,49.4,43.1z M50.7,40.8c0.3-0.5,1.5-1.1,4.1-1.1   c0.8,0,1.6,0,2.2,0.1c1.1,0.1,1.9,1.1,1.9,2.2c-0.1,1.9-0.7,5-4.2,5H54c-2,0.1-3.7-1.5-3.8-3.6c0,0,0-0.1,0-0.1   C50.1,42.4,50.3,41.5,50.7,40.8z"></path>
	<path style="fill:#EE3E54;" d="M49.9,42.3c-0.5-0.3-1-0.5-1.6-0.5c-0.5,0-1,0.1-1.5,0.5c-0.2-0.4-0.3-0.8-0.5-1.3h4   C50.2,41.5,50,41.9,49.9,42.3z"></path>
</g>
<g>
	<circle style="fill:#FDFCEE;" cx="69.7" cy="72.1" r="14.4"></circle>
	<path style="fill:#472B29;" d="M69.7,86.9c-8.2,0-14.8-6.6-14.8-14.8c0-8.2,6.6-14.8,14.8-14.8s14.8,6.6,14.8,14.8   C84.5,80.2,77.8,86.9,69.7,86.9z M69.7,58c-7.8,0-14.1,6.3-14.1,14.1s6.3,14.1,14.1,14.1s14.1-6.3,14.1-14.1S77.4,58,69.7,58z"></path>
</g>
<g>
	<circle style="fill:#8889B9;" cx="69.7" cy="72.1" r="11.9"></circle>
	<path style="fill:#472B29;" d="M69.7,84.2c-6.7,0-12.2-5.5-12.2-12.2c0-6.7,5.5-12.2,12.2-12.2s12.2,5.5,12.2,12.2   C81.8,78.8,76.4,84.2,69.7,84.2z M69.7,60.4c-6.4,0-11.7,5.2-11.7,11.7s5.2,11.7,11.7,11.7s11.7-5.2,11.7-11.7S76.1,60.4,69.7,60.4   z"></path>
</g>
<path style="opacity:0.79;fill:#A1A1CA;enable-background:new    ;" d="M69.6,61.9c5.1,0,9.7,3.2,11.5,8c-1.2-6.4-7.4-10.5-13.7-9.3  c-4.7,0.9-8.4,4.6-9.3,9.3C59.9,65.1,64.5,61.9,69.6,61.9z"></path>
<g>
	<path style="fill:#BCBCE2;" d="M74.6,72.1c0-0.7,0.4-1.3,1-1.4c-0.1-0.6-0.4-1.2-0.7-1.8c-0.6,0.3-1.3,0.2-1.7-0.2   c-0.5-0.5-0.6-1.2-0.3-1.8c-0.6-0.3-1.2-0.6-1.8-0.7c-0.1,0.6-0.7,1-1.3,1.1c-0.7,0.1-1.4-0.4-1.6-1.1c-0.6,0.1-1.2,0.4-1.8,0.8   c0.4,0.7,0.1,1.6-0.6,2c-0.4,0.2-1,0.2-1.4,0c-0.3,0.6-0.6,1.2-0.7,1.8c0.8,0.2,1.2,1,1,1.8c-0.1,0.5-0.5,0.9-1,1   c0.2,0.6,0.4,1.2,0.8,1.8c0.6-0.3,1.3-0.2,1.7,0.3c0.5,0.4,0.6,1.2,0.3,1.7c0.6,0.3,1.2,0.6,1.8,0.7l0,0c0.3-0.8,1.1-1.2,1.9-0.9   c0.4,0.1,0.8,0.5,0.9,0.9c0,0.1,0,0.1,0.1,0c0.6-0.1,1.1-0.4,1.6-0.7h0.1c-0.3-0.5-0.2-1.2,0.2-1.6c0.4-0.5,1.2-0.7,1.8-0.4   c0.3-0.5,0.6-1.1,0.7-1.8C74.9,73.3,74.5,72.8,74.6,72.1z M69.7,73.1c-0.6,0-1-0.4-1-1s0.4-1,1-1c0.6,0,1,0.4,1,1c0,0,0,0,0,0.1   C70.6,72.7,70.2,73.1,69.7,73.1z"></path>
	<path style="fill:#472B29;" d="M71,78.2c0,0-0.1,0-0.1,0c0,0-0.1-0.1-0.1-0.2c-0.1-0.4-0.4-0.6-0.8-0.8c-0.3-0.1-0.7-0.1-1,0.1   c-0.3,0.1-0.5,0.4-0.6,0.7c0,0.1-0.1,0.2-0.2,0.1c-0.7-0.2-1.3-0.4-1.8-0.8c-0.1-0.1-0.1-0.2-0.1-0.3c0.3-0.5,0.2-1.1-0.3-1.5   c-0.4-0.4-1-0.5-1.5-0.2c-0.1,0.1-0.2,0-0.3-0.1c-0.4-0.6-0.6-1.2-0.8-1.8c0-0.1,0-0.2,0.1-0.2c0.4-0.1,0.7-0.4,0.9-0.9   c0.2-0.7-0.2-1.4-0.9-1.6c-0.1,0-0.2-0.1-0.1-0.2c0.2-0.7,0.4-1.3,0.8-1.9c0.1-0.1,0.2-0.1,0.3-0.1c0.4,0.2,0.8,0.2,1.2,0   c0.3-0.2,0.5-0.4,0.6-0.8c0.1-0.3,0.1-0.7-0.1-1c0-0.1,0-0.2,0.1-0.3c0.6-0.4,1.2-0.6,1.9-0.8c0.1,0,0.2,0,0.2,0.1   c0.2,0.6,0.7,1,1.3,0.9c0.5,0,1-0.4,1.1-0.9c0-0.1,0.1-0.2,0.2-0.1c0.7,0.2,1.3,0.4,1.9,0.8c0.1,0.1,0.1,0.2,0.1,0.3   c-0.3,0.5-0.2,1.1,0.2,1.5c0.4,0.4,1,0.5,1.5,0.2c0.1-0.1,0.2,0,0.3,0.1c0.4,0.6,0.6,1.2,0.8,1.9c0,0.1,0,0.2-0.1,0.2   c-0.5,0.2-0.9,0.7-0.9,1.2c0,0,0,0,0,0c0,0.5,0.3,1.1,0.8,1.2c0.1,0,0.2,0.1,0.1,0.2c-0.2,0.6-0.4,1.3-0.8,1.8   c-0.1,0.1-0.2,0.1-0.3,0.1c-0.5-0.3-1.2-0.1-1.6,0.3c-0.3,0.4-0.4,1-0.2,1.4c0,0.1,0,0.1,0,0.2s-0.1,0.1-0.2,0.1h0   c-0.5,0.3-1.1,0.5-1.6,0.7C71.1,78.2,71.1,78.2,71,78.2z M69.6,76.8c0.2,0,0.4,0,0.5,0.1c0.4,0.2,0.8,0.5,1,0.9   c0.5-0.1,1-0.3,1.4-0.6c-0.2-0.6-0.1-1.2,0.3-1.6c0.5-0.6,1.2-0.8,1.9-0.5c0.3-0.4,0.5-0.9,0.6-1.4c-0.6-0.3-1-0.9-0.9-1.6   c0-0.7,0.4-1.3,1-1.6c-0.1-0.5-0.3-1-0.6-1.4c-0.6,0.3-1.3,0.1-1.8-0.4c-0.5-0.5-0.6-1.2-0.4-1.8c-0.4-0.3-0.9-0.4-1.4-0.6   c-0.2,0.6-0.8,1-1.4,1c-0.7,0.1-1.4-0.3-1.7-1c-0.5,0.1-1,0.3-1.4,0.6c0.3,0.8,0,1.7-0.8,2.1c-0.4,0.2-0.9,0.3-1.4,0.1   c-0.3,0.4-0.4,0.9-0.6,1.4c0.8,0.3,1.2,1.2,0.9,2c-0.1,0.5-0.5,0.9-0.9,1.1c0.1,0.5,0.3,1,0.6,1.4c0.6-0.2,1.3-0.1,1.8,0.4   c0.5,0.5,0.7,1.2,0.4,1.8c0.4,0.3,0.9,0.4,1.4,0.6c0.2-0.3,0.4-0.6,0.8-0.8C69.1,76.9,69.3,76.8,69.6,76.8z M69.7,73.3   c-0.7,0-1.2-0.5-1.2-1.2s0.5-1.2,1.2-1.2c0,0,0,0,0,0c0.3,0,0.6,0.1,0.8,0.3c0.2,0.2,0.4,0.5,0.4,0.8c0,0,0,0.1,0,0.1   C70.8,72.8,70.3,73.3,69.7,73.3C69.7,73.3,69.7,73.3,69.7,73.3z M69.7,71.3C69.7,71.3,69.7,71.3,69.7,71.3c-0.4,0-0.8,0.4-0.8,0.8   c0,0.4,0.4,0.8,0.8,0.8c0.4,0,0.8-0.3,0.8-0.8v0c0-0.2-0.1-0.4-0.2-0.6S69.9,71.3,69.7,71.3z"></path>
</g>
<g>
	<path style="fill:#8889B9;" d="M69.7,75.6c-2,0-3.5-1.6-3.5-3.6s1.6-3.5,3.6-3.5s3.5,1.6,3.5,3.5S71.6,75.6,69.7,75.6L69.7,75.6z    M69.7,70c-1.1,0-2.1,0.9-2.1,2.1s0.9,2.1,2.1,2.1c1.1,0,2.1-0.9,2.1-2.1c0,0,0,0,0,0C71.7,70.9,70.8,70,69.7,70L69.7,70z"></path>
	<path style="fill:#472B29;" d="M69.7,75.7c-2,0-3.7-1.6-3.7-3.7s1.6-3.7,3.7-3.7s3.7,1.6,3.7,3.7S71.7,75.7,69.7,75.7z M69.7,68.6   c-1.9,0-3.4,1.5-3.4,3.4s1.5,3.4,3.4,3.4s3.4-1.5,3.4-3.4S71.5,68.6,69.7,68.6z M69.7,74.3c-1.2,0-2.2-1-2.2-2.2s1-2.2,2.2-2.2   l0.1,0c1.1,0.1,2.1,1,2.1,2.2C71.9,73.3,70.9,74.3,69.7,74.3z M69.5,70.1c-1,0.1-1.8,0.9-1.8,2c0,1.1,0.9,2,2,2s2-0.9,2-2   c0-1.1-0.9-1.9-2-1.9L69.5,70.1z"></path>
</g>
</svg>