<svg xmlns="http://www.w3.org/2000/svg" xmlns:xlink="http://www.w3.org/1999/xlink" version="1.1" id="Layer_1" x="0px" y="0px" viewBox="0 0 100 100" style="enable-background:new 0 0 100 100;" xml:space="preserve">
<title>people man_10</title>
<g id="line2">
	<g id="_grupa_">
		<circle style="fill:#FFFFFF;" cx="20.3" cy="56" r="0.9"></circle>
		<circle style="fill:#FFFFFF;" cx="79.4" cy="31.1" r="0.7"></circle>
		<circle style="fill:#F1BC19;" cx="76.7" cy="12.1" r="0.9"></circle>
		<circle style="fill:#F1BC19;" cx="20.8" cy="63.7" r="0.9"></circle>
		<circle style="fill:#E6EDB7;" cx="49.6" cy="49.3" r="37.5"></circle>
		<circle style="fill:#F1BC19;" cx="82.2" cy="14.2" r="4"></circle>
		<circle style="fill:#88AE45;" cx="86.2" cy="23.3" r="1.9"></circle>
		<circle style="fill:#FBCD59;" cx="77.2" cy="75.7" r="1.9"></circle>
		<circle style="fill:#FBCD59;" cx="14" cy="62.8" r="4"></circle>
		<circle style="fill:#88AE45;" cx="24.3" cy="86.9" r="1.9"></circle>
		<circle style="fill:#FFFFFF;" cx="75.8" cy="29.6" r="1.8"></circle>
		<circle style="fill:#FFFFFF;" cx="17.8" cy="50.7" r="2.5"></circle>
		<path style="fill:#E5AC80;" d="M68.1,70.5c-0.4-2.2-1.3-3.4-3.3-4l-0.3-0.1l-0.6-0.2c-1.3-0.5-8.7-3.3-8.7-3.3    c-0.6-0.1-1-0.5-1.2-1.1c-0.2-0.9-0.3-1.9-0.2-2.9c-1.6,0.6-3.3,1-5,1.4c-1.9,0.2-6-2.3-6-2.3s-0.1,3-0.2,3.7    c-0.2,0.6-0.7,1-1.3,1.1L34,65.5c-0.8,0.2-1.5,0.5-2.2,0.9c-1.5,1-2.6,2.4-3.2,4.2c0,0-0.5,3.3-0.5,3.4c0,0.5-0.1,1-0.1,1.5    c7.8,5.3,14,6.7,24.7,6.3c4.9-0.2,12.1-2.6,15.9-4.5C68.5,73,68.1,70.5,68.1,70.5z"></path>
		<path style="fill:#FDFCEF;" d="M64.8,66.7l-0.3-0.1l-0.6-0.2c-0.8-0.3-3.9-1.5-6.2-2.3h-0.1c-2.5,1.3-6.1,3.2-9.4,3.2    s-6.6-1.8-9.4-3.2l-0.3,0.1L34,65.6c-0.8,0.2-1.5,0.5-2.2,0.9c-1.5,1-2.6,2.4-3.2,4.2c0,0-0.5,3.3-0.5,3.4c0,0.5-0.1,5.4-0.1,6    c7.8,5.3,14,6.7,24.7,6.3c4.9-0.2,12.1-2.6,15.9-4.5c-0.2-4.2-0.6-11.2-0.6-11.2C67.7,68.6,66.8,67.3,64.8,66.7z"></path>
		<path style="fill:#E1E0D8;" d="M34.9,84.3c-0.2,0-0.3-0.1-0.3-0.3v-4c0-0.2,0.1-0.3,0.3-0.3s0.3,0.1,0.3,0.3v4    C35.2,84.2,35.1,84.3,34.9,84.3z"></path>
		<path style="fill:#E1E0D8;" d="M61.2,85c-0.2,0-0.3-0.1-0.3-0.3v-4.7c0-0.2,0.1-0.3,0.3-0.3s0.3,0.1,0.3,0.3v4.7    C61.5,84.9,61.4,85,61.2,85z"></path>
		<path style="fill:#88AE45;" d="M50.1,72.8l2.1,13.7h-8.4l2.1-13.7c0.6-1.2,2-1.6,3.2-1C49.5,72,49.9,72.4,50.1,72.8z"></path>
		<path style="fill:#9ABF4B;" d="M46,70.9l-2-4.3h7.8L50,70.9c-0.6,1.1-2,1.5-3.1,0.9C46.6,71.6,46.3,71.3,46,70.9z"></path>
		<path style="fill:#EAEAE8;" d="M40.9,62.7l-2.4,1.7l5.1,7.7l4.8-5.9C48.4,66.2,41.3,64.3,40.9,62.7z"></path>
		<path style="fill:#EAEAE8;" d="M55.1,62.7l2.4,1.7l-5.1,7.7l-4.8-5.9C47.6,66.2,54.7,64.3,55.1,62.7z"></path>
		<path style="fill:#EDBC94;" d="M60.4,44.2h-0.4c-1,0-1.2,0.3-1.2-0.3c0.1-1-0.1-5.3-0.1-5.5c0-4.4-4.7-8-10.5-8.2h-0.2    c-5.8,0.2-10.5,3.8-10.5,8.2c0,0.2-0.2,4.5-0.1,5.5c0,0.6-0.2,0.2-1.2,0.3H36c-1,0-1.8,0.6-2.1,1.6c0.1,0.1,0.6,3.7,1.4,5.1    c0.4,0.8,1.1,0.9,1.8,1.4c0.3,0.2,0.5,0.6,0.6,1c0.5,1.6,1.4,2.9,2.7,4c0.6,0.6,4.5,4.7,7.9,4.5s7.3-3.9,7.9-4.5    c1.2-1.1,2.2-2.4,2.7-4c0.1-0.4,0.3-0.8,0.6-1c0.7-0.5,1.4-0.6,1.8-1.4c0.8-1.4,1.3-5,1.4-5.1C62.2,44.8,61.4,44.2,60.4,44.2z"></path>
		<path style="fill:#512C2B;" d="M48.3,52.1c0.7,0,1.3-0.3,1.8-0.8c0,0,0-0.1,0-0.2c0,0,0,0,0,0l0,0c0,0-0.1,0-0.2,0c0,0,0,0,0,0    c-0.9,0.8-2.3,0.8-3.2,0c0,0-0.1,0-0.1,0c0,0-0.1,0-0.1,0c0,0,0,0.1,0,0.2c0,0,0,0,0,0C47,51.8,47.6,52.1,48.3,52.1z"></path>
		<path style="fill:#512C2B;" d="M46.1,41.8l0.4-0.8c-1.9-0.4-3.8-0.4-5.7,0.2l0.5,0.8C42.9,41.5,44.5,41.5,46.1,41.8z"></path>
		<path style="fill:#512C2B;" d="M55.3,41.8l0.4-0.8c-1.9-0.4-3.8-0.4-5.7,0.2l0.5,0.8C52.1,41.5,53.7,41.5,55.3,41.8z"></path>
		<path style="fill:#512C2B;" d="M43.5,43c-0.5,0-0.9,0.3-1,0.7c0.1,0,0.1,0,0.2,0c0.4,0,0.7,0.3,0.7,0.7c0,0.4-0.3,0.7-0.7,0.7    c-0.1,0-0.2,0-0.3-0.1c0.1,0.6,0.6,1.1,1.2,1.1c0.9-0.2,1.4-1.1,1.2-2C44.5,43.6,44,43.2,43.5,43L43.5,43z"></path>
		<path style="fill:#512C2B;" d="M53,43c-0.4,0-0.7,0.2-0.9,0.5c0.1,0,0.2,0,0.2,0c0.4,0,0.7,0.3,0.7,0.7c0,0.4-0.3,0.7-0.7,0.7    c-0.2,0-0.4-0.1-0.5-0.3c0.2,0.7,0.9,1.1,1.6,0.9c0.7-0.2,1.1-0.9,0.9-1.6C54.1,43.4,53.6,43,53,43z"></path>
		<path style="fill:#512C2B;" d="M53.6,53.9c0,0,0-0.1,0-0.2l0,0c0,0-0.1,0-0.2,0c0,0,0,0,0,0c-1.5,1-3.3,1.5-5.1,1.4    c-1.8,0.1-3.6-0.4-5.1-1.4c0,0-0.1,0-0.1,0c0,0-0.1,0-0.1,0c0,0,0,0.1,0,0.2C46.1,56.1,50.3,56.1,53.6,53.9L53.6,53.9z"></path>
		<path style="fill:#472B29;" d="M49.3,86.9c-8.9,0-14.6-1.8-21.4-6.4c-0.1-0.1-0.2-0.2-0.2-0.4c0-0.1,0-0.4,0-0.9    c0-2.2,0.1-6.8,0.6-8.6c0.4-1.9,1.6-3.5,3.4-4.4c0.7-0.4,1.5-0.7,2.3-0.9l7.1-2.5c0.5-0.1,0.9-0.4,1-0.9c0-0.3,0.1-1.3,0.1-2.1    c-0.7-0.5-1.4-1-2.1-1.6c-1.3-1.2-2.3-2.7-2.8-4.3c-0.1-0.4-0.2-0.6-0.4-0.8c-0.2-0.1-0.4-0.3-0.6-0.4c-0.5-0.3-1-0.5-1.3-1.2    c-0.8-1.7-1.3-3.5-1.4-5.4c0-0.1,0-0.1,0-0.1c0.3-1.1,1.3-1.9,2.5-1.9h0.4c0.3,0,0.6,0,0.8,0c-0.1-1,0-3.8,0.1-5    c0-0.3,0-0.5,0-0.5c0-4.7,4.8-8.6,10.8-8.8h0.3c6.1,0.2,10.9,4.1,10.9,8.8c0,0,0,0.2,0,0.5c0,1.2,0.1,4.1,0.1,5.1    c0.2,0,0.5-0.1,0.8-0.1h0.4c1.2,0,2.2,0.8,2.5,1.9c0,0,0,0.1,0,0.1c-0.2,1.9-0.6,3.7-1.4,5.4c-0.4,0.7-0.8,1-1.3,1.2    c-0.2,0.1-0.4,0.2-0.6,0.4c-0.2,0.2-0.4,0.4-0.4,0.7c-0.5,1.7-1.5,3.2-2.8,4.4c-0.7,0.6-1.5,1.2-2.3,1.8c0,0.7,0.1,1.3,0.2,2    c0.2,0.4,0.5,0.7,1,0.8c0.3,0.1,7.5,2.8,8.7,3.3l0.9,0.4c2.1,0.6,3.2,1.9,3.6,4.3c0,0,0,0,0,0.1c0,0,0.3,6.9,0.5,11.2    c0,0.2-0.1,0.3-0.2,0.4c-4,2-11.3,4.4-16.1,4.6C51.5,86.8,50.4,86.9,49.3,86.9z M28.5,79.9c7.4,5,13.6,6.5,24.3,6.1    c4.5-0.2,11.5-2.4,15.5-4.4c-0.2-4.1-0.5-10.4-0.5-10.9c-0.4-2.1-1.3-3.1-3.1-3.7l-1-0.4c-1.2-0.5-8.6-3.2-8.7-3.3    c-0.6-0.2-1.2-0.6-1.5-1.3c-0.3-0.8-0.3-1.7-0.3-2.5c0-0.1,0.1-0.2,0.2-0.3c0.8-0.6,1.6-1.2,2.4-1.8c1.2-1.1,2.1-2.4,2.5-4    c0.1-0.4,0.3-0.9,0.7-1.2c0.3-0.2,0.5-0.3,0.7-0.4c0.4-0.2,0.8-0.4,1-0.9c0.7-1.6,1.2-3.3,1.3-5c-0.2-0.7-0.9-1.2-1.7-1.2h-0.4    c-0.3,0-0.5,0-0.7,0.1c-0.3,0-0.5,0.1-0.7-0.1c-0.2-0.2-0.2-0.5-0.2-0.6c0.1-0.9,0-3.9-0.1-5.1c0-0.3,0-0.5,0-0.5    c0-4.3-4.4-7.8-10.1-8h-0.2c-5.6,0.2-10.1,3.7-10.1,8c0,0,0,0.2,0,0.5c0,1.2-0.1,4.2-0.1,5.1c0,0.2,0,0.5-0.2,0.6    c-0.2,0.2-0.4,0.1-0.7,0.1c-0.2,0-0.4-0.1-0.7,0l-0.4,0c-0.8,0-1.4,0.5-1.7,1.2c0.2,1.7,0.6,3.4,1.3,5c0.2,0.4,0.6,0.6,1,0.9    c0.2,0.1,0.5,0.3,0.7,0.4c0.4,0.3,0.7,0.8,0.7,1.3c0.5,1.5,1.3,2.8,2.5,3.9c0.7,0.6,1.5,1.2,2.2,1.7c0.1,0.1,0.2,0.2,0.2,0.4    c-0.1,1.1-0.1,2.1-0.2,2.4c-0.2,0.8-0.9,1.3-1.6,1.5L34.1,66c-0.8,0.2-1.5,0.5-2.1,0.9c-1.6,0.8-2.6,2.2-3,3.9    c-0.5,1.7-0.5,6.4-0.6,8.4C28.5,79.5,28.5,79.7,28.5,79.9z"></path>
		<path style="fill:#D3A47D;" d="M60.5,48.9l-0.6-0.1l0.2-1.8l-1,0.4l-0.2-0.5l1.5-0.7c0.1,0,0.2,0,0.3,0c0.1,0.1,0.1,0.2,0.1,0.3    L60.5,48.9z"></path>
		<path style="fill:#D3A47D;" d="M36.3,48.5L36,46.2c0-0.1,0-0.2,0.1-0.3c0.1-0.1,0.2-0.1,0.3,0l1.5,0.6l-0.2,0.6l-1-0.4l0.2,1.8    L36.3,48.5z"></path>
		<path style="fill:#472B29;" d="M37.6,53C37.6,53,37.6,53,37.6,53c-0.1,0-0.2-0.1-0.2-0.2l0.2-8.7c0-0.1,0.1-0.2,0.2-0.2    c0.1,0,0.2,0.1,0.2,0.2l-0.2,8.7C37.8,52.9,37.7,53,37.6,53z"></path>
		<path style="fill:#472B29;" d="M59,53c-0.1,0-0.2-0.1-0.2-0.2l-0.2-8.7c0-0.1,0.1-0.2,0.2-0.2c0,0,0,0,0,0c0.1,0,0.2,0.1,0.2,0.2    l0.2,8.7C59.2,52.9,59.1,53,59,53C59,53,59,53,59,53z"></path>
		<path style="fill:#472B29;" d="M54.7,58.4c-1.8,1.2-5.2,1.9-5.8,0.8c-0.5-0.8-1.2-0.8-1.7,0c-0.7,1.2-4.3,0-6.2-1.4    c-0.5,0,0,0.2-0.4,0.5c2.3,1.9,4.8,3.5,7.4,4.8l0,0c2.4-1.2,4.8-2.7,6.9-4.4C54.6,58.4,55.3,58.4,54.7,58.4z"></path>
		<path style="fill:#472B29;" d="M58.5,32.9c1.2,0.3,2.1,1.3,2.1,2.6C60.5,37.7,59,47,59,47l-3-9.6L58.5,32.9L58.5,32.9z"></path>
		<path style="fill:#472B29;" d="M46.9,26.9l-1.2-1.6c0,0,13-1.4,13,5.6c0.1,5.3-3.4,10-8.5,11.3l0.6-2.5l-5.1,2.7l0.7-1.5l-4.2,1.5    l1.5-3.5L40,40.3c-0.8,2.2-1.5,4.4-2,6.7c0,0-3-9.9-1-10.7l-0.7-0.4l0.9-1.8l-1.3-0.6l1.1-1.6l-0.5-0.7l2.6-1.5l-1.3-0.7    C37.7,29.1,42,25.6,46.9,26.9L46.9,26.9z"></path>
		<path style="fill:#8C9136;" d="M46.9,43.5c-2-2.4-9.5-0.7-9.5-0.7c0.1,0.5,0.3,1.1,0.4,1.6c0.6,0.1,0.6,1.3,0.7,1.8    c0.3,2.2,1.8,3.8,4.9,3.8c2.2,0,4-1.7,4-3.8c0,0,0,0,0,0C47.4,45.2,47.2,44.3,46.9,43.5z M46.5,46.2c0,1.8-1.5,3.2-3.3,3.2    c0,0-0.1,0-0.1,0h-0.6c-3.1,0-3.6-2.7-3.7-4.4c-0.1-1,0.7-1.8,1.7-1.9c0.7-0.1,1.3-0.1,2-0.1c2.3,0,3.3,0.6,3.6,1    C46.5,44.7,46.6,45.4,46.5,46.2z"></path>
		<path style="fill:#8C9136;" d="M49.1,46.1c0,2.2,1.8,3.9,4,3.9c0,0,0,0,0,0c3.1,0.1,4.6-1.6,4.9-3.8c0-0.5,0.1-1.7,0.6-1.8    c0.1-0.5,0.2-1.1,0.4-1.6c0,0-7.5-1.7-9.5,0.7C49.1,44.3,49,45.2,49.1,46.1z M50.2,44c0.3-0.4,1.3-1,3.6-1c0.7,0,1.3,0,2,0.1    c1,0.1,1.7,1,1.6,1.9c-0.1,1.7-0.6,4.4-3.7,4.4h-0.6c-1.8,0.1-3.3-1.4-3.3-3.1c0,0,0-0.1,0-0.1C49.7,45.4,49.9,44.7,50.2,44z"></path>
		<path style="fill:#8C9136;" d="M49.5,45.4c-0.4-0.3-0.9-0.4-1.4-0.4c-0.5,0-0.9,0.1-1.3,0.4c-0.1-0.4-0.3-0.8-0.4-1.1h3.5    L49.5,45.4z"></path>
	</g>
</g>
</svg>
