<svg xmlns="http://www.w3.org/2000/svg" xmlns:xlink="http://www.w3.org/1999/xlink" version="1.1" id="Layer_1" x="0px" y="0px" viewBox="0 0 100 100" style="enable-background:new 0 0 100 100;" xml:space="preserve">
<title>women bubble attach</title>
<g>
	<g id="Warstwa_48">
		<g id="_grupa_">
			<circle style="fill:#FFFFFF;" cx="19.8" cy="55.7" r="0.9"></circle>
			<circle style="fill:#FFFFFF;" cx="78.9" cy="30.8" r="0.7"></circle>
			<circle style="fill:#F1BC19;" cx="76.3" cy="11.7" r="0.9"></circle>
			<circle style="fill:#F1BC19;" cx="20.3" cy="63.3" r="0.9"></circle>
			<circle style="fill:#E4E4F9;" cx="49.1" cy="49" r="37.5"></circle>
			<circle style="fill:#F1BC19;" cx="81.7" cy="13.9" r="4"></circle>
			<circle style="fill:#A1A1CA;" cx="85.7" cy="23" r="1.9"></circle>
			<circle style="fill:#FBCD59;" cx="76.7" cy="75.4" r="1.9"></circle>
			<circle style="fill:#FBCD59;" cx="13.5" cy="62.4" r="4"></circle>
			<circle style="fill:#A1A1CA;" cx="23.8" cy="86.6" r="1.9"></circle>
			<circle style="fill:#FFFFFF;" cx="75.4" cy="29.3" r="1.8"></circle>
			<circle style="fill:#FFFFFF;" cx="17.3" cy="50.3" r="2.5"></circle>
			<path style="fill:#472B29;" d="M64.5,36.5c-1.2-3.4-3.3-6.3-6.1-8.5c-2.9-2.2-6.4-3.2-10-2.8c-3.6-0.4-7.1,0.7-10,2.8     c-2.8,2.2-4.9,5.1-6.1,8.5c-2.4,6.7-1.8,14.1,1.8,20.2c2.7,4.6,7.4,7.8,12.8,8.6c0,0,0,0.1,0,0.1c0.5,0,1.1,0,1.6,0     c0.5,0,1,0,1.6,0v-0.1c5.3-0.8,10-3.9,12.7-8.6C66.3,50.6,66.9,43.2,64.5,36.5z M48.4,61.4c-3.2-9.3-3.2-19.4,0-28.7     C51.6,42,51.6,52.1,48.4,61.4z"></path>
			<path style="fill:#D8AD8F;" d="M60.4,41.3c0.1-1.5-0.3-2.8-0.2-3.6l0,0c-1.3-1.7-2.2-3.6-4-4.8c-2.1-1.3-4.4-2.2-6.8-2.8     c-5.7-1.4-11.3,2.7-13.1,8.1c0,0,0,0.1,0,0.1c0.2,1,0.3,2,0.4,2.9c-1.5,0-2.3,0.8-1.8,2.4c0,0,0.6,2.6,1,3.9     c0.1,0.7,0.8,1.2,1.5,1.2c0,0.8,0,1.7,0,2.5c0,1,0.3,2,0.9,2.8c1.5,2.2,9.2,7.2,11.1,7c3,0,9-5.1,10.6-7.7     c0.3-0.5,0.4-1.1,0.5-1.7c0-1,0-2,0-3c0.6-0.1,1.1-0.6,1.3-1.2c0.4-1.3,1-3.9,1-3.9C63.1,42.1,62,41.2,60.4,41.3z"></path>
			<path style="fill:#B2876B;" d="M65,66.8l-0.3-0.1l-0.6-0.2c-1.2-0.5-9.3-3.3-9.3-3.3c-0.6-0.2-1-0.6-1.2-1.1     c-0.2-0.9-0.3-1.9-0.2-2.9c-1.4,0.6-2.8,1.1-4.2,1.4c-1.9,0.2-5.2-2.3-5.2-2.3s-0.1,3-0.2,3.7c-0.2,0.6-0.7,1-1.3,1.1l-7.7,2.6     c-0.8,0.2-1.5,0.5-2.2,0.9c-1.6,1.1-2.8,2.8-3.3,4.7h0c0,0.2-0.1,0.4-0.1,0.6c-0.1,0.4-0.1,0.9-0.1,1.3C29,73.8,29,79.4,29,80     c8.4,5.8,12.3,6,22.9,6c4.6,0,13-3,17.1-4.5C68.5,72.1,69.3,68.1,65,66.8z"></path>
			<g style="opacity:0.3;">
				<g style="opacity:0.8;">
					<ellipse style="fill:#F4989E;" cx="41.6" cy="49.9" rx="2" ry="2"></ellipse>
				</g>
				<g style="opacity:0.8;">
					<ellipse style="fill:#F4989E;" cx="56.8" cy="49.9" rx="2" ry="2"></ellipse>
				</g>
			</g>
			<path style="fill:#472B29;" d="M37.6,49.5c-0.1,0-0.2-0.1-0.2-0.2l-0.8-8c0-0.1,0.1-0.2,0.2-0.2c0.1,0,0.2,0.1,0.2,0.2l0.8,8     C37.8,49.4,37.7,49.5,37.6,49.5C37.6,49.5,37.6,49.5,37.6,49.5z"></path>
			<path style="fill:#472B29;" d="M60.1,49.1C60.1,49.1,60.1,49.1,60.1,49.1c-0.1,0-0.2-0.1-0.2-0.2l0.5-8.1c0-0.1,0.1-0.2,0.2-0.2     c0.1,0,0.2,0.1,0.2,0.2l-0.5,8.1C60.3,49,60.2,49.1,60.1,49.1z"></path>
			<path style="fill:#6D1B18;" d="M45.6,54c0,0.2-0.1,0.3-0.1,0.5c0,1.4,1.5,2.5,3.5,2.5s3.5-1.1,3.5-2.5c0-0.2,0-0.3-0.1-0.5H45.6z     "></path>
			<path style="fill:#EE3E54;" d="M50.8,56.6C50.3,56.2,49.7,56,49,56c-0.7,0-1.3,0.2-1.8,0.6C48.3,57.1,49.7,57.1,50.8,56.6     L50.8,56.6z"></path>
			<path style="fill:#FDFCEF;" d="M46.6,54L46.6,54v0.4c0,0.4,0.5,0.7,1.1,0.7h2.6c0.6,0,1.1-0.3,1.1-0.7V54l0,0H46.6z"></path>
			<path style="fill:#472B29;" d="M49,57.2c-2,0-3.7-1.2-3.7-2.7c0-0.2,0-0.4,0.1-0.5c0-0.1,0.1-0.1,0.2-0.1h6.8     c0.1,0,0.2,0.1,0.2,0.1c0,0.2,0.1,0.3,0.1,0.5C52.6,56,51,57.2,49,57.2z M45.7,54.2c0,0.1,0,0.2,0,0.3c0,1.3,1.5,2.3,3.3,2.3     c1.8,0,3.2-1,3.2-2.3c0-0.1,0-0.2,0-0.3H45.7z"></path>
			<path style="fill:#FDFCEF;" d="M29.3,79.9l6.1,0.6l0.8-14.9c0,0-3.9,0.5-5.4,2.7C28.9,71,29.3,79.9,29.3,79.9z"></path>
			<path style="fill:#FDFCEF;" d="M68.8,80.2l-6.6,0.6l-1.4-15.8c0,0,4.8,1,6.4,3.2C69.3,71.1,68.8,80.2,68.8,80.2z"></path>
			<path style="fill:#8889B9;" d="M40,64c-0.2,9,17.4,9.6,16.2-0.7l4.9,1.7l1.5,19c-8.9,3.5-18.7,3.2-27.4-0.6l0.4-17.7L40,64z"></path>
			<path style="opacity:0.41;fill:#472B29;enable-background:new    ;" d="M49,52.1c0.8,0,1.5-0.3,2-0.9c0.1,0,0.1-0.1,0.1-0.2     c0,0,0,0-0.1-0.1l0,0c0-0.1-0.1-0.1-0.2,0c0,0,0,0,0,0c-1,0.9-2.6,0.9-3.6,0c0-0.1-0.1-0.1-0.2-0.1c0,0,0,0-0.1,0.1     c0,0.1,0,0.1,0,0.2C47.5,51.8,48.2,52.1,49,52.1z"></path>
			<path style="opacity:0.41;fill:#472B29;enable-background:new    ;" d="M49.8,58.8C49.9,58.9,49.9,58.8,49.8,58.8     C49.9,58.8,49.9,58.8,49.8,58.8c0.1-0.1,0-0.2,0-0.2h0h-1.8c0,0-0.1,0-0.1,0.1c0,0,0,0.1,0.1,0.1H49.8z"></path>
			<path style="fill:#512C2B;" d="M46.9,40.1c-2.4-0.7-4.9-1-7.4-0.8c-0.1,0-0.2,0.1-0.2,0.2c0,0.1,0.1,0.2,0.2,0.2     c0,0,5.1,0.9,6.6,1.4h0.1c0.1,0,0.1,0,0.2-0.1l0.6-0.7c0-0.1,0-0.1,0-0.2C47,40.2,47,40.1,46.9,40.1z"></path>
			<path style="fill:#512C2B;" d="M50.9,39.9c2.4-0.6,5-0.7,7.5-0.4c0.1,0,0.2,0.1,0.2,0.2c0,0.1-0.1,0.2-0.2,0.2     c0,0-5.1,0.6-6.7,1.1h-0.1c-0.1,0-0.2,0-0.2-0.1l-0.6-0.7c0-0.1,0-0.1,0-0.2C50.8,39.9,50.9,39.9,50.9,39.9z"></path>
			<path style="fill:#472B29;" d="M43.4,42.2c-0.5,0-1,0.3-1.2,0.8c0.1,0,0.1,0,0.2,0c0.5,0.1,0.8,0.5,0.7,0.9     c0,0.4-0.3,0.7-0.7,0.7c-0.1,0-0.3,0-0.4-0.1c0.1,0.7,0.7,1.2,1.4,1.3c1-0.2,1.6-1.2,1.4-2.2C44.6,42.9,44.1,42.3,43.4,42.2     L43.4,42.2z"></path>
			<path style="fill:#472B29;" d="M54.4,42.2c-0.4,0-0.8,0.2-1.1,0.6c0.1,0,0.2-0.1,0.3-0.1c0.5,0,0.8,0.4,0.8,0.8     c0,0.5-0.4,0.8-0.8,0.8c-0.3,0-0.5-0.1-0.6-0.4c-0.1,0.9,0.6,1.7,1.4,1.8c1-0.2,1.6-1.2,1.4-2.2C55.6,42.9,55.1,42.3,54.4,42.2z"></path>
			<path style="fill:#472B29;" d="M49.1,87c-6.9,0-14.2-1.7-20.4-6.6c-0.1-0.1-0.2-0.2-0.2-0.4c0,0,0-0.1,0-0.2     c-0.2-4.1,0-11.4,4-13.4c0.7-0.4,1.5-0.7,2.3-0.9l7.7-2.6c0.5-0.1,0.8-0.4,1-0.8c0.1-0.4,0.2-2,0.2-2.8c-2.3-1.5-4.9-3.4-5.8-4.7     c-0.6-0.9-1-2-0.9-3.1l0-2c-0.7-0.2-1.3-0.8-1.5-1.6c-0.4-1.2-1-3.8-1-3.9c-0.4-1.1-0.1-1.8,0.2-2.2c0.2-0.3,0.7-0.7,1.6-0.8     c0-0.2,0-0.3,0-0.5c-0.3-0.6-0.4-1.1-0.5-1.7c0-6.5,5.8-11.8,12.9-11.8c7.1,0,12.9,5.3,12.9,11.8c0,0.7-0.2,1.3-0.5,1.9     c0,0.1,0,0.2,0,0.3c0.8,0.1,1.5,0.4,1.9,1c0.3,0.4,0.6,1.1,0.2,2.1h0c-0.1,0.6-0.7,3-1,3.9c-0.1,0.6-0.6,1.2-1.2,1.4v2.6     c0,0.7-0.2,1.3-0.5,1.9c-1.8,2.4-3.9,4.4-6.4,6c0,0.8,0,1.5,0.2,2.3c0.1,0.3,0.5,0.6,0.9,0.7c0.4,0.1,8.1,2.8,9.3,3.3l0.9,0.3     c3.8,1.2,3.9,4.3,4.1,10.4c0,1.3,0.1,2.8,0.2,4.5c0,0.2-0.1,0.4-0.2,0.5C64.6,84.6,57.2,87,49.1,87z M29.5,79.7     c12.9,9.8,30.6,6.2,39,1.5c-0.1-1.6-0.1-3-0.2-4.2c-0.2-6.1-0.3-8.6-3.4-9.5c0,0,0,0,0,0L64,67.1c-1.2-0.5-9.1-3.2-9.2-3.2     c-0.7-0.2-1.2-0.7-1.5-1.4c-0.3-1-0.4-2-0.3-2.9c0-0.2,0.1-0.3,0.2-0.4c2.5-1.6,4.6-3.5,6.3-5.9c0.2-0.4,0.4-0.9,0.4-1.4v-3     c0-0.3,0.2-0.5,0.4-0.5c0.4-0.1,0.8-0.4,0.8-0.8c0.4-1.2,1-3.7,1-3.9c0.2-0.6,0.2-1-0.1-1.3c-0.3-0.4-0.9-0.6-1.6-0.6     c-0.1,0-0.3,0-0.4-0.1c-0.1-0.1-0.2-0.2-0.2-0.4c0-0.8,0-1.2,0.2-1.4c0.2-0.4,0.3-0.9,0.3-1.4c0-5.9-5.3-10.8-11.9-10.8     c-6.6,0-11.9,4.8-11.9,10.8c0,0.5,0.2,1,0.4,1.4c0,0,0,0.1,0,0.2c0.1,0.4,0.1,0.8,0.1,1.1c0,0.1,0,0.3-0.1,0.4s-0.2,0.2-0.4,0.2     c-0.4,0-1,0.1-1.3,0.4c-0.3,0.4-0.1,0.9,0,1.3c0,0.1,0.6,2.7,1,3.9c0.1,0.5,0.5,0.9,1,0.9c0,0,0,0,0,0c0.1,0,0.3,0.1,0.4,0.1     c0.1,0.1,0.1,0.2,0.1,0.4v2.5c0,0.9,0.2,1.8,0.8,2.5c0.7,1,3.1,2.9,5.8,4.6c0.1,0.1,0.2,0.3,0.2,0.4c0,0.7-0.2,2.8-0.3,3.4     c-0.3,0.8-0.9,1.4-1.7,1.5L35,66.4c-0.7,0.2-1.4,0.5-2.1,0.9C30.4,68.6,29.2,73.1,29.5,79.7C29.5,79.7,29.5,79.7,29.5,79.7z"></path>
			<path style="fill:#472B29;" d="M49.3,60.8c-1.9,0-5-1.7-5.1-1.7C44,59,44,58.8,44.1,58.7c0.1-0.1,0.2-0.2,0.3-0.1     c0,0,3.4,1.8,5.1,1.7c1.5-0.3,3-0.8,4.4-1.6c0.1-0.1,0.3,0,0.3,0.1c0.1,0.1,0,0.3-0.1,0.3c-1.4,0.8-2.9,1.4-4.5,1.7     C49.5,60.8,49.4,60.8,49.3,60.8z"></path>
			<path style="fill:#472B29;" d="M48.3,28.4c-4-1.3-15.4,4.1-12.3,12.8c0.1,0,11.8-6.7,12.3-9c0.8,2.4,12.1,9,12.2,9     C63.6,32.5,52.3,27.1,48.3,28.4z"></path>
			<path style="fill:#8686BF;" d="M50,31c-2.6-0.6-5.3-0.4-7.8,0.5c-2.5,1.1-4.7,3-6,5.4c1.1-2.7,3-4.9,5.5-6.3     c2.6-1.4,5.6-2,8.6-1.6L50,31z"></path>
			<path style="fill:#A1A1CA;" d="M62.8,30.4l-0.3,0c-0.7-0.1-1.4-0.1-2.1,0c-0.6,0-1.2,0.1-1.7,0.2c-0.2,0-0.5,0-0.7,0.1     c-0.2,0-0.3,0.1-0.5,0.2l-0.1-0.1l-1-0.6l-1-0.6l-0.1-0.1c0-0.2-0.1-0.4-0.1-0.5c-0.1-0.2-0.2-0.4-0.3-0.6     c-0.2-0.6-0.4-1.1-0.7-1.6c-0.3-0.6-0.6-1.3-1-1.9c-0.1-0.1-0.1-0.2-0.2-0.2c0,0-2,0.1-3.9,3.6c-0.4,0.8-0.6,1.8-0.6,2.7     c0,0.4,0,0.6,0.3,0.6c0.6,0.2,1.2,0.3,1.8,0.3c0.2,0,0.5,0,0.7,0c0.8,0.1,1.7,0.1,2.5,0c0,0.1,2.3,1.4,2.3,1.4     c0.4,0.8,0.8,1.5,1.3,2.2c0.1,0.2,0.3,0.4,0.4,0.6c0.3,0.6,0.7,1.1,1.2,1.5c0.2,0.3,0.4,0.2,0.7,0c0.8-0.5,1.5-1.1,2-1.9     C63.7,32.2,62.8,30.5,62.8,30.4z"></path>
		</g>
		<g>
			<circle style="fill:#FDFCEE;" cx="69.7" cy="71.9" r="14.4"></circle>
			<path style="fill:#472B29;" d="M69.7,86.7c-8.2,0-14.8-6.6-14.8-14.8c0-8.2,6.6-14.8,14.8-14.8s14.8,6.6,14.8,14.8     C84.5,80,77.8,86.7,69.7,86.7z M69.7,57.8c-7.8,0-14.1,6.3-14.1,14.1s6.3,14.1,14.1,14.1s14.1-6.3,14.1-14.1S77.4,57.8,69.7,57.8     z"></path>
		</g>
		<g>
			<circle style="fill:#8889B9;" cx="69.7" cy="71.9" r="11.9"></circle>
			<path style="fill:#472B29;" d="M69.7,84c-6.7,0-12.2-5.5-12.2-12.2c0-6.7,5.5-12.2,12.2-12.2s12.2,5.5,12.2,12.2     C81.8,78.6,76.4,84,69.7,84z M69.7,60.2c-6.4,0-11.7,5.2-11.7,11.7s5.2,11.7,11.7,11.7s11.7-5.2,11.7-11.7S76.1,60.2,69.7,60.2z"></path>
		</g>
		<path style="opacity:0.79;fill:#A1A1CA;enable-background:new    ;" d="M69.6,61.7c5.1,0,9.7,3.2,11.5,8    c-1.2-6.4-7.4-10.5-13.7-9.3c-4.7,0.9-8.4,4.6-9.3,9.3C59.9,64.9,64.5,61.7,69.6,61.7z"></path>
		<path style="fill:#FDFCEE;" d="M67.8,76.8c-1.7,0-3.1-1.4-3.1-3.1c0-0.8,0.3-1.6,0.9-2.2l3.8-3.8c0.4-0.4,1-0.7,1.6-0.7    c0.6,0,1.2,0.2,1.6,0.7c0.9,0.9,0.9,2.3,0,3.2l-3.8,3.8c-0.5,0.6-1.4,0.8-2,0.3s-0.8-1.4-0.3-2c0.1-0.1,0.2-0.2,0.3-0.3l3.6-3.6    c0.1-0.1,0.3-0.2,0.4-0.2c0.3,0,0.6,0.3,0.6,0.6c0,0.1-0.1,0.3-0.2,0.4l-3.6,3.6c-0.1,0.1-0.1,0.2,0,0.3c0,0,0,0,0,0    c0,0,0.1,0.1,0.2,0.1c0.1,0,0.1,0,0.2-0.1l3.8-3.8c0.2-0.2,0.3-0.5,0.3-0.8c0-0.6-0.5-1.1-1-1.1c0,0,0,0,0,0    c-0.3,0-0.6,0.1-0.8,0.3l-3.8,3.8c-0.8,0.7-0.9,1.9-0.2,2.7c0.7,0.8,1.9,0.9,2.7,0.2c0.1-0.1,0.2-0.2,0.2-0.2l3.8-3.8    c0.2-0.2,0.6-0.2,0.8,0c0,0,0,0,0,0c0.1,0.1,0.2,0.3,0.2,0.4c0,0.2-0.1,0.3-0.2,0.4L70,75.8C69.5,76.4,68.7,76.8,67.8,76.8z"></path>
		<path style="fill:#472B29;" d="M71.1,67.1c1.2,0,2.1,0.9,2.1,2.1c0,0.6-0.2,1.1-0.6,1.5l0,0l-3.8,3.8c-0.2,0.2-0.6,0.4-0.9,0.4    c-0.3,0-0.7-0.1-0.9-0.4c-0.5-0.5-0.5-1.3,0-1.8l3.6-3.6c0.1-0.1,0.2-0.1,0.3-0.1c0.1,0,0.2,0,0.3,0.1c0.2,0.2,0.2,0.4,0,0.6    l-2.7,2.7l-0.8,0.8c-0.2,0.2-0.2,0.4,0,0.6c0.1,0.1,0.2,0.1,0.3,0.1c0.1,0,0.2,0,0.3-0.1l0.8-0.8l1.8-1.8l1.2-1.2    c0.5-0.5,0.6-1.3,0.1-1.8s-1.3-0.6-1.8-0.1c0,0-0.1,0.1-0.1,0.1L69,69.5l-1.2,1.2l-1.4,1.4l0,0c-0.8,0.8-0.8,2.2,0,3s2.2,0.8,3,0    l0,0l1.4-1.4l2.4-2.4c0.1-0.1,0.2-0.1,0.3-0.1c0.2,0,0.4,0.2,0.4,0.4c0,0.1,0,0.2-0.1,0.3l-3.8,3.8c-0.6,0.6-1.3,0.9-2.1,0.9    c-0.8,0-1.5-0.3-2.1-0.9c-1.1-1.1-1.1-3,0-4.1c0,0,0,0,0,0l0,0l3.8-3.8l0,0C70,67.4,70.6,67.2,71.1,67.1 M71.1,66.8    c-0.6,0-1.3,0.3-1.7,0.7l-3.8,3.8l0,0c-1.2,1.4-1,3.4,0.4,4.6c1.2,1,3,1,4.3,0l3.8-3.9c0.3-0.3,0.3-0.8,0-1.1    c-0.1-0.1-0.3-0.2-0.5-0.2c-0.2,0-0.4,0.1-0.5,0.2l-2.4,2.4l-1.4,1.4c-0.7,0.7-1.8,0.7-2.5,0c-0.7-0.7-0.7-1.8,0-2.5l0,0l1.5-1.4    l1.2-1.2l1.2-1.2c0.3-0.4,0.9-0.4,1.3,0c0,0,0,0,0,0c0.2,0.2,0.3,0.4,0.3,0.6c0,0.2-0.1,0.5-0.3,0.6L70.6,71l-1.8,1.8l-0.8,0.8    c0,0,0,0-0.1,0l0,0c0,0,0-0.1,0-0.1l0.8-0.8l2.7-2.7c0.3-0.3,0.3-0.8,0-1.1c0,0,0,0,0,0c-0.3-0.3-0.8-0.3-1.1,0c0,0,0,0,0,0    l-3.6,3.6c-0.6,0.6-0.6,1.6,0,2.3c0.3,0.3,0.7,0.5,1.1,0.5c0.4,0,0.8-0.2,1.1-0.4l3.8-3.8c1-1,1-2.5,0-3.5    C72.4,67.1,71.8,66.8,71.1,66.8L71.1,66.8z"></path>
	</g>
</g>
</svg>