<svg xmlns="http://www.w3.org/2000/svg" xmlns:xlink="http://www.w3.org/1999/xlink" version="1.1" id="Layer_1" x="0px" y="0px" viewBox="0 0 100 100" style="enable-background:new 0 0 100 100;" xml:space="preserve">
<title>women bubble eye</title>
<g>
	<g id="Warstwa_48">
		<g id="_grupa_">
			<circle style="fill:#FFFFFF;" cx="19.8" cy="56.1" r="0.9"></circle>
			<circle style="fill:#FFFFFF;" cx="78.9" cy="31.2" r="0.7"></circle>
			<circle style="fill:#F1BC19;" cx="76.3" cy="12.2" r="0.9"></circle>
			<circle style="fill:#F1BC19;" cx="20.3" cy="63.8" r="0.9"></circle>
			<circle style="fill:#FCE0A2;" cx="49.1" cy="49.4" r="37.5"></circle>
			<circle style="fill:#F1BC19;" cx="81.7" cy="14.4" r="4"></circle>
			<circle style="fill:#EE3E54;" cx="85.7" cy="23.4" r="1.9"></circle>
			<circle style="fill:#FBCD59;" cx="76.7" cy="75.8" r="1.9"></circle>
			<circle style="fill:#FBCD59;" cx="13.5" cy="62.9" r="4"></circle>
			<circle style="fill:#EE3E54;" cx="23.8" cy="87" r="1.9"></circle>
			<circle style="fill:#FFFFFF;" cx="75.4" cy="29.7" r="1.8"></circle>
			<circle style="fill:#FFFFFF;" cx="17.3" cy="50.8" r="2.5"></circle>
			<path style="fill:#563A3A;" d="M34,40.5c0,0,0.2,17.2,2.3,18.8c3,2.4,22.6,2.3,25.5,0c2.1-1.7,2.3-18.8,2.3-18.8H34z"></path>
			<path style="fill:#D8AD8F;" d="M60.7,41.3c0.1-1.5-0.3-2.8-0.2-3.6l0,0c-1.3-1.7-2.2-3.6-4-4.8c-2.1-1.3-4.4-2.2-6.8-2.8     c-5.7-1.4-11.3,2.7-13.1,8.1c0,0,0,0.1,0,0.1c0.2,1,0.3,2,0.4,2.9c-1.5,0-2.3,0.8-1.8,2.4c0,0,0.6,2.6,1,3.9     c0.1,0.7,0.8,1.2,1.5,1.2c0,0.8,0,1.7,0,2.5c0,1,0.3,2,0.9,2.8c1.5,2.2,9.2,7.2,11.1,7c3,0,9-5.1,10.6-7.7     c0.3-0.5,0.4-1.1,0.5-1.7c0-1,0-2,0-3c0.6-0.1,1.1-0.6,1.3-1.2c0.4-1.3,1-3.9,1-3.9C63.4,42.2,62.2,41.3,60.7,41.3z"></path>
			<path style="fill:#B2876B;" d="M65.3,66.9l-0.3-0.1l-0.6-0.2c-1.2-0.6-9.3-3.3-9.3-3.3c-0.6-0.2-1-0.6-1.2-1.1     c-0.2-1-0.3-1.9-0.2-2.9c-1.4,0.6-2.8,1.1-4.2,1.4c-1.9,0.2-5.2-2.3-5.2-2.3s-0.1,3-0.2,3.7c-0.2,0.6-0.7,1-1.3,1.1L35,65.9     c-0.8,0.2-1.5,0.5-2.2,0.9c-1.6,1.1-2.8,2.8-3.3,4.7c-0.1,0.2-0.1,0.4-0.1,0.6c-0.1,0.4-0.1,0.9-0.1,1.3c0,0.5,0,7.4-0.1,8     c8.3,5.4,13.8,4.8,24.3,4.8c4.6,0,11.7-3.7,15.5-6C68.6,70.9,69.5,68.2,65.3,66.9z"></path>
			<g style="opacity:0.3;">
				<g style="opacity:0.8;">
					<ellipse style="fill:#F4989E;" cx="41.9" cy="50" rx="2" ry="2"></ellipse>
				</g>
				<g style="opacity:0.8;">
					<ellipse style="fill:#F4989E;" cx="57" cy="50" rx="2" ry="2"></ellipse>
				</g>
			</g>
			<path style="fill:#472B29;" d="M37.9,49.6c-0.1,0-0.2-0.1-0.2-0.2l-0.8-8.1c0-0.1,0.1-0.2,0.2-0.2c0.1,0,0.2,0.1,0.2,0.2l0.8,8.1     C38.1,49.5,38,49.6,37.9,49.6C37.9,49.6,37.9,49.6,37.9,49.6z"></path>
			<path style="fill:#472B29;" d="M60.4,49.2C60.4,49.2,60.4,49.1,60.4,49.2c-0.1,0-0.2-0.1-0.2-0.2l0.5-8.1c0-0.1,0.1-0.2,0.2-0.2     c0.1,0,0.2,0.1,0.2,0.2L60.6,49C60.6,49.1,60.5,49.2,60.4,49.2z"></path>
			<path style="fill:#6D1B18;" d="M45.8,54.1c0,0.2-0.1,0.3-0.1,0.5c0,1.4,1.5,2.5,3.5,2.5s3.5-1.1,3.5-2.5c0-0.2,0-0.3-0.1-0.5     H45.8z"></path>
			<path style="fill:#EE3E54;" d="M51,56.7c-1.1-0.8-2.6-0.8-3.7,0C48.6,57.2,49.9,57.2,51,56.7z"></path>
			<path style="fill:#FDFCEF;" d="M46.8,54.1L46.8,54.1v0.4c0,0.4,0.5,0.7,1.1,0.7h2.6c0.6,0,1.1-0.3,1.1-0.7v-0.4l0,0H46.8z"></path>
			<path style="fill:#472B29;" d="M49.2,57.3c-2,0-3.7-1.2-3.7-2.7c0-0.2,0-0.4,0.1-0.5c0-0.1,0.1-0.1,0.2-0.1h6.8     c0.1,0,0.2,0.1,0.2,0.1c0,0.2,0.1,0.3,0.1,0.5C52.9,56.1,51.2,57.3,49.2,57.3z M46,54.3c0,0.1,0,0.2,0,0.3c0,1.3,1.5,2.3,3.3,2.3     c1.8,0,3.2-1,3.2-2.3c0-0.1,0-0.2,0-0.3H46z"></path>
			<path style="fill:#EE3E54;" d="M40.8,64.4l4.1,2l4.6,10.7L54,66l3-2.3l4.9,1.7l1.4,18c0,0-13.8,6.5-28.3,0.8l0.6-18.1L40.8,64.4z     "></path>
			<path style="opacity:0.41;fill:#472B29;enable-background:new    ;" d="M49.2,52.2c0.8,0,1.5-0.3,2-0.9c0.1,0,0.1-0.1,0-0.2     c0,0,0,0,0,0l0,0c-0.1,0-0.1,0-0.2,0c-1,0.9-2.6,0.9-3.6,0c0,0-0.1,0-0.1,0c0,0-0.1,0-0.1,0c-0.1,0-0.1,0.1,0,0.2c0,0,0,0,0,0     C47.8,51.9,48.5,52.2,49.2,52.2z"></path>
			<path style="opacity:0.41;fill:#472B29;enable-background:new    ;" d="M50.1,59C50.2,59,50.2,59,50.1,59c0.1-0.1,0-0.2,0-0.2     h-1.8c0,0-0.1,0-0.1,0.1s0,0.1,0.1,0.1l0,0H50.1z"></path>
			<path style="fill:#512C2B;" d="M47.2,40.2c-2.4-0.7-4.9-1-7.4-0.8c-0.1,0-0.2,0.1-0.2,0.2c0,0.1,0.1,0.2,0.2,0.2     c0,0,5.1,0.9,6.6,1.4h0.1c0.1,0,0.1,0,0.2-0.1l0.6-0.7c0-0.1,0-0.1,0-0.2C47.3,40.2,47.2,40.2,47.2,40.2z"></path>
			<path style="fill:#512C2B;" d="M51.2,40c2.4-0.6,5-0.7,7.5-0.4c0.1,0,0.2,0.1,0.2,0.2c0,0.1-0.1,0.2-0.2,0.2c0,0-5.1,0.6-6.7,1.1     h-0.1c-0.1,0-0.2,0-0.2-0.1l-0.6-0.7c0-0.1,0-0.1,0-0.2C51.1,40.1,51.1,40,51.2,40z"></path>
			<path style="fill:#472B29;" d="M43.6,42.3c-0.5,0-1,0.3-1.2,0.8c0.1,0,0.1,0,0.2,0c0.5,0.1,0.8,0.5,0.7,0.9     c0,0.4-0.3,0.7-0.7,0.7c-0.1,0-0.3,0-0.4-0.1c0.1,0.7,0.7,1.2,1.4,1.3c1-0.2,1.6-1.2,1.4-2.2C44.9,43,44.3,42.4,43.6,42.3     L43.6,42.3z"></path>
			<path style="fill:#472B29;" d="M54.6,42.3c-0.4,0-0.8,0.2-1.1,0.6c0.1,0,0.2,0,0.3,0c0.5,0.1,0.8,0.5,0.7,0.9     c0,0.4-0.3,0.7-0.7,0.7c-0.3,0-0.5-0.1-0.6-0.4c0.2,0.8,1,1.3,1.8,1.1c0.8-0.2,1.3-1,1.1-1.8C55.9,42.8,55.3,42.3,54.6,42.3     L54.6,42.3z"></path>
			<path style="fill:#472B29;" d="M49.6,60.9c-1.9,0-5-1.7-5.2-1.7c-0.1-0.1-0.2-0.2-0.1-0.3c0.1-0.1,0.2-0.2,0.3-0.1     c0,0,3.4,1.8,5.1,1.7c1.5-0.3,3-0.8,4.3-1.6c0.1-0.1,0.3,0,0.3,0.1c0.1,0.1,0,0.3-0.1,0.3c-1.4,0.8-2.9,1.4-4.5,1.7     C49.8,60.9,49.7,60.9,49.6,60.9z"></path>
			<path style="fill:#EE3E54;" d="M47.5,41.8C45.3,39.1,36.8,41,36.8,41c0.2,0.6,0.3,1.2,0.4,1.8c0.6,0.1,0.7,1.5,0.7,2     c0.3,2.5,2,4.3,5.5,4.3c2.4,0.1,4.4-1.9,4.5-4.3c0,0,0,0,0,0C48,43.8,47.9,42.7,47.5,41.8z M47.1,44.9c0,2-1.6,3.7-3.7,3.7     c0,0-0.1,0-0.1,0c-0.2,0-0.4,0-0.7,0c-3.5,0-4.1-3.1-4.2-5c-0.1-1.1,0.8-2.1,1.9-2.2c0.6-0.1,1.4-0.1,2.2-0.1     c2.6,0,3.8,0.6,4.1,1.1C47,43.2,47.2,44,47.1,44.9z"></path>
			<path style="fill:#EE3E54;" d="M50,44.8c0,2.4,2,4.4,4.5,4.3c0,0,0,0,0,0c3.5,0.1,5.2-1.8,5.5-4.3c0.1-0.5,0.1-1.9,0.7-2     c0.1-0.6,0.3-1.2,0.4-1.8c0,0-8.5-1.9-10.7,0.8C50,42.7,49.9,43.7,50,44.8z M51.3,42.4c0.3-0.5,1.4-1.1,4.1-1.1     c0.8,0,1.6,0,2.2,0.1c1.1,0.1,1.9,1.1,1.9,2.2c-0.1,1.9-0.7,5-4.2,5c-0.2,0-0.4,0-0.7,0c-2,0.1-3.7-1.5-3.8-3.5c0,0,0-0.1,0-0.1     C50.7,44,50.9,43.2,51.3,42.4L51.3,42.4z"></path>
			<path style="fill:#EE3E54;" d="M50.5,44c-0.5-0.3-1-0.5-1.6-0.5c-0.5,0-1,0.1-1.5,0.5c-0.2-0.4-0.3-0.8-0.5-1.3h4     C50.8,43.1,50.6,43.5,50.5,44z"></path>
			<path style="fill:#472B29;" d="M48.2,87.1c-6.6,0-13.3-1.7-19.2-5.2c-0.1-0.1-0.2-0.2-0.2-0.4c-0.2-8.5,1.1-13.5,4-15     c0.7-0.4,1.5-0.7,2.2-0.9l7.8-2.6c0.5-0.1,0.8-0.4,1-0.8c0.1-0.4,0.2-2,0.2-2.8c-2.3-1.5-4.9-3.4-5.8-4.7c-0.6-0.9-1-2-0.9-3.1     l0-2c-0.7-0.2-1.3-0.8-1.5-1.5c-0.4-1.2-1-3.8-1-3.9c-0.4-1.1-0.1-1.8,0.2-2.2c0.2-0.3,0.7-0.7,1.6-0.8c0-0.2,0-0.3,0-0.5     c-0.3-0.6-0.4-1.1-0.5-1.8c0-6.5,5.8-11.8,12.9-11.8c7.1,0,12.9,5.3,12.9,11.8c0,0.7-0.2,1.3-0.5,1.9c0,0.1,0,0.2,0,0.3     c0.8,0.1,1.5,0.4,1.9,1c0.3,0.4,0.6,1.1,0.2,2.1l0,0c-0.1,0.6-0.7,3-1,3.9c-0.1,0.6-0.6,1.2-1.2,1.4V52c0,0.7-0.2,1.4-0.5,2     c-1.8,2.4-3.9,4.4-6.4,6c0,0.8,0,1.5,0.2,2.3c0.1,0.3,0.5,0.6,0.9,0.7c0.4,0.1,8.1,2.8,9.3,3.3l0.8,0.3c3.8,1.2,4,6.1,4.1,13     l0,0.6c0,0,0,0,0,0c0,0,0,0,0,0v0c0,0.2-0.1,0.4-0.3,0.5C62.9,84.9,55.6,87.1,48.2,87.1z M29.7,81.1c12.1,7,27.2,6.5,38.9-1.2     l0-0.4c-0.2-6.7-0.3-11.1-3.4-12l-0.3-0.1l-0.6-0.3C63,66.7,55.1,64,55,64c-0.7-0.2-1.2-0.7-1.5-1.4c-0.3-1-0.4-2-0.3-2.9     c0-0.2,0.1-0.3,0.2-0.4c2.5-1.6,4.6-3.5,6.3-5.9c0.2-0.4,0.3-0.9,0.4-1.4v-3c0-0.3,0.2-0.5,0.4-0.5c0.4-0.1,0.8-0.4,0.8-0.8     c0.4-1.2,1-3.7,1-3.9c0.2-0.6,0.2-1-0.1-1.3C62,42.2,61.4,42,60.7,42c-0.2,0-0.3,0-0.4-0.1c-0.1-0.1-0.1-0.2-0.1-0.4     c0-0.8,0-1.2,0.2-1.4c0.2-0.4,0.3-0.9,0.3-1.4c0-5.9-5.3-10.8-11.9-10.8c-6.6,0-11.9,4.8-11.9,10.8c0,0.5,0.2,1,0.4,1.4     c0,0,0,0.1,0,0.2c0.1,0.4,0.1,0.7,0.1,1.1c0,0.1,0,0.3-0.1,0.4S37.1,42,36.9,42c-0.4,0-1,0.1-1.3,0.4c-0.3,0.4-0.2,0.9,0,1.3     c0,0.1,0.6,2.7,1,3.9c0.1,0.5,0.5,0.9,1,0.8c0.1,0,0.3,0,0.4,0.1c0.1,0.1,0.2,0.2,0.2,0.4v2.5c0,0.9,0.2,1.8,0.8,2.5     c0.7,1,3.1,2.9,5.8,4.6c0.1,0.1,0.2,0.3,0.2,0.4c0,0.8-0.2,2.8-0.3,3.4c-0.3,0.8-0.9,1.4-1.7,1.5l-7.7,2.6     c-0.7,0.2-1.4,0.5-2.1,0.9C31.8,68.1,29.5,70.8,29.7,81.1z"></path>
			<path style="fill:#472B29;" d="M64.1,41c0-11.9-9.1-15.4-14.9-15.4S34,29,34,41c0,5.5,1.5,4.6,1.5,4.6s7.7-7.4,13.2-9     s5.6-2.2,5.6-2.2c0.6,2.2,1.3,4.3,2.3,6.3C58,43,62.7,45,62.7,45S64.1,46.5,64.1,41z"></path>
			<path style="fill:#472B29;" d="M52.5,33.6c-1.1,1.5-7.2,4.8-13.7,9.3c3.1,0.9,12.8-3.6,16.4-7.3C54.6,33.5,53.6,34.4,52.5,33.6     L52.5,33.6z"></path>
		</g>
		<g>
			<circle style="fill:#FDFCEE;" cx="69.7" cy="72.3" r="14.4"></circle>
			<path style="fill:#472B29;" d="M69.7,87.1c-8.2,0-14.8-6.6-14.8-14.8c0-8.2,6.6-14.8,14.8-14.8s14.8,6.6,14.8,14.8     C84.5,80.5,77.8,87.1,69.7,87.1z M69.7,58.3c-7.8,0-14.1,6.3-14.1,14.1s6.3,14.1,14.1,14.1s14.1-6.3,14.1-14.1     S77.4,58.3,69.7,58.3z"></path>
		</g>
		<g>
			<circle style="fill:#78A0CF;" cx="69.7" cy="72.3" r="11.9"></circle>
			<path style="fill:#472B29;" d="M69.7,84.5c-6.7,0-12.2-5.5-12.2-12.2c0-6.7,5.5-12.2,12.2-12.2s12.2,5.5,12.2,12.2     C81.8,79,76.4,84.5,69.7,84.5z M69.7,60.6c-6.4,0-11.7,5.2-11.7,11.7S63.2,84,69.7,84s11.7-5.2,11.7-11.7S76.1,60.6,69.7,60.6z"></path>
		</g>
		<path style="opacity:0.79;fill:#ABCDEF;enable-background:new    ;" d="M69.6,62.2c5.1,0,9.7,3.2,11.5,8    c-1.2-6.4-7.4-10.5-13.7-9.3c-4.7,0.9-8.4,4.6-9.3,9.3C59.9,65.3,64.5,62.2,69.6,62.2z"></path>
		<g>
			<path style="fill:#FDFCEF;" d="M76.8,72.3c0,0-3.2,4.3-7.1,4.3s-7.1-4.3-7.1-4.3s3.2-4.3,7.1-4.3S76.8,72.3,76.8,72.3z"></path>
			<path style="fill:#472B29;" d="M69.7,76.9c-4,0-7.2-4.2-7.3-4.4c-0.1-0.1-0.1-0.2,0-0.3c0.1-0.2,3.3-4.4,7.3-4.4s7.2,4.2,7.3,4.4     c0.1,0.1,0.1,0.2,0,0.3C76.9,72.6,73.7,76.9,69.7,76.9z M62.9,72.3c0.6,0.7,3.4,4.1,6.8,4.1c3.4,0,6.2-3.3,6.8-4.1     c-0.6-0.7-3.5-4.1-6.8-4.1C66.3,68.3,63.5,71.6,62.9,72.3z"></path>
		</g>
		<circle style="fill:#A3CAEF;" cx="69.7" cy="72.3" r="3.5"></circle>
		<g>
			<circle style="fill:#78A0CF;" cx="69.7" cy="72.3" r="1"></circle>
			<path style="fill:#472B29;" d="M69.7,73.5c-0.6,0-1.2-0.5-1.2-1.2s0.5-1.2,1.2-1.2s1.2,0.5,1.2,1.2S70.3,73.5,69.7,73.5z      M69.7,71.4c-0.5,0-0.9,0.4-0.9,0.9s0.4,0.9,0.9,0.9s0.9-0.4,0.9-0.9S70.1,71.4,69.7,71.4z"></path>
		</g>
		<path style="fill:#472B29;" d="M72.5,74.4C72.5,74.4,72.5,74.4,72.5,74.4c-0.1-0.1-0.1-0.1-0.1-0.2c0.1-0.1,0.2-0.3,0.3-0.4    c0-0.1,0.1-0.2,0.1-0.2c0-0.1,0.1-0.1,0.2-0.1s0.1,0.1,0.1,0.2c0,0.1-0.1,0.2-0.1,0.3c-0.1,0.2-0.2,0.3-0.3,0.5    C72.6,74.4,72.5,74.4,72.5,74.4z"></path>
		<path style="fill:#472B29;" d="M69.7,75.9c-0.2,0-0.5,0-0.7-0.1c-0.9-0.2-1.7-0.7-2.3-1.5c-0.5-0.8-0.7-1.7-0.5-2.7    c0.2-0.9,0.7-1.7,1.5-2.3c0.8-0.5,1.7-0.7,2.7-0.5c0.9,0.2,1.7,0.7,2.3,1.5c0.4,0.6,0.6,1.3,0.6,2c0,0.1-0.1,0.1-0.1,0.1l0,0    c-0.1,0-0.1-0.1-0.1-0.1c0-0.7-0.2-1.3-0.6-1.8c-0.5-0.7-1.2-1.2-2.1-1.4c-0.9-0.2-1.8,0-2.5,0.5c-0.7,0.5-1.2,1.2-1.4,2.1    s0,1.8,0.5,2.5c0.5,0.7,1.2,1.2,2.1,1.4c0.9,0.2,1.8,0,2.5-0.5c0.1-0.1,0.3-0.2,0.4-0.3c0.1,0,0.1,0,0.2,0c0,0,0,0.1,0,0.2    c-0.1,0.1-0.3,0.2-0.4,0.3C71.1,75.7,70.4,75.9,69.7,75.9z"></path>
		<path style="fill:#472B29;" d="M73,73.3C73,73.3,73,73.3,73,73.3c-0.1,0-0.1-0.1-0.1-0.2l0,0C73,73,73,73,73.1,73    c0.1,0,0.1,0.1,0.1,0.2C73.1,73.2,73.1,73.3,73,73.3z"></path>
	</g>
</g>
</svg>